<svg width="24" height="24" viewBox="0 0 24 24" fill="none" xmlns="http://www.w3.org/2000/svg">
<path d="M22.2072 21.1486H1.79209C1.56763 21.1489 1.34781 21.0847 1.15869 20.9638C0.969569 20.8429 0.819086 20.6703 0.725079 20.4665C0.631072 20.2627 0.597486 20.0362 0.628301 19.8138C0.659117 19.5915 0.753044 19.3827 0.898943 19.2121C2.43232 17.4152 3.20927 14.9576 3.20927 11.9085V9.42325C3.20702 8.24957 3.42293 7.0857 3.84598 5.99091C3.90041 5.84555 3.98314 5.71243 4.08937 5.59926C4.1956 5.48608 4.32322 5.3951 4.46485 5.33159C4.60648 5.26807 4.7593 5.23327 4.91446 5.22922C5.06963 5.22517 5.22406 5.25195 5.36881 5.30798C5.51356 5.36402 5.64577 5.44822 5.75776 5.55569C5.86975 5.66317 5.95931 5.79179 6.02125 5.93412C6.0832 6.07644 6.11629 6.22964 6.11862 6.38484C6.12095 6.54004 6.09248 6.69417 6.03484 6.83829C5.717 7.66195 5.55483 8.53746 5.55657 9.42032V11.9055C5.61842 14.2959 5.08504 16.6641 4.00442 18.7972H19.9942C18.9136 16.6641 18.3802 14.2959 18.4421 11.9055V9.42032C18.4421 5.65759 15.552 2.5973 11.9993 2.5973C11.1204 2.59886 10.2517 2.78668 9.45058 3.14839C8.64947 3.5101 7.93412 4.03749 7.35168 4.69579C7.24914 4.81342 7.12417 4.90941 6.98409 4.97816C6.844 5.04692 6.69162 5.08704 6.53585 5.0962C6.38007 5.10535 6.22403 5.08335 6.07686 5.03149C5.92969 4.97962 5.79434 4.89892 5.67873 4.79412C5.56312 4.68931 5.46956 4.56251 5.40355 4.42112C5.33753 4.27973 5.30037 4.12659 5.29424 3.97067C5.28811 3.81474 5.31314 3.65916 5.36785 3.51302C5.42257 3.36689 5.50588 3.23313 5.61291 3.11958C6.41421 2.21714 7.39769 1.4948 8.49851 1.00018C9.59933 0.505551 10.7925 0.249873 11.9993 0.25C16.8459 0.25 20.7894 4.36364 20.7894 9.42032V11.9055C20.7894 14.957 21.5669 17.4123 23.0997 19.2092C23.2456 19.3797 23.3395 19.5885 23.3703 19.8107C23.4012 20.033 23.3676 20.2595 23.2737 20.4633C23.1798 20.6671 23.0294 20.8397 22.8403 20.9606C22.6513 21.0816 22.4316 21.1458 22.2072 21.1457" fill="#401BD3"/>
<path d="M11.9988 23.7495C11.5317 23.7495 11.0729 23.6259 10.669 23.3913C10.2651 23.1566 9.93042 22.8193 9.69906 22.4134C9.46769 22.0076 9.34783 21.5478 9.35165 21.0807C9.35547 20.6136 9.48283 20.1558 9.7208 19.7538C9.91918 19.4191 10.2424 19.177 10.6193 19.0806C10.9962 18.9842 11.396 19.0414 11.7307 19.2398C11.8211 19.2935 11.9057 19.3567 11.983 19.4281C12.0586 19.3547 12.1421 19.2898 12.2318 19.2345C12.3958 19.1332 12.578 19.0653 12.7683 19.0345C12.9585 19.0037 13.1529 19.0107 13.3404 19.055C13.5279 19.0994 13.7048 19.1803 13.8611 19.293C14.0174 19.4058 14.1499 19.5482 14.2511 19.7121C14.4987 20.1131 14.6348 20.5729 14.6453 21.0441C14.6558 21.5153 14.5403 21.9807 14.3107 22.3923C14.0811 22.8038 13.7457 23.1466 13.3393 23.3852C12.9329 23.6238 12.4701 23.7496 11.9988 23.7495Z" fill="#401BD3"/>
</svg>
