<svg xmlns="http://www.w3.org/2000/svg" width="80" height="60" fill="none"><path fill="#401BD3" fill-rule="evenodd" d="m27.964 26.355.048.005.013.002.013.003c.159.04.299.108.432.186l.132.08.01.006 1.683 1.304h5.365c.473 0 .865.052 1.205.143l.142.041.011.003.01.005c.298.127.57.28.788.484l.042.041.01.009.007.01c.173.215.287.45.361.713l.03.114.002.01.001.009c.044.305.09.666.09 1.03v3.794c0 .347-.137.642-.37.876l-.01.009-.01.008c-.26.208-.571.31-.92.31-.367 0-.686-.1-.932-.318v-.001a1.131 1.131 0 0 1-.38-.884v-3.621a.911.911 0 0 0-.024-.23.212.212 0 0 0-.039-.087c-.005-.005-.027-.023-.09-.039a1.027 1.027 0 0 0-.25-.025H30.26c-.066 0-.204.003-.334-.047-.166-.017-.307-.113-.408-.193l-1.643-1.223-1.643 1.223-.005.003-.005.003a1.97 1.97 0 0 1-.203.123.61.61 0 0 1-.2.064c-.136.047-.248.047-.33.047h-1.93c-.38 0-.702-.096-.951-.339-.275-.224-.38-.51-.38-.863 0-.336.106-.64.378-.884h.001l.047-.04c.24-.192.544-.278.906-.278h1.898l1.784-1.322c.232-.183.487-.278.722-.264Zm9.781 8.77a1.19 1.19 0 0 1 .043-.03l-.043.03Zm.344-.482c0-.004.002-.008.003-.011l.01-.033a.935.935 0 0 1-.013.044ZM35.64 30.15a.48.48 0 0 0-.067-.014l.067.014Zm-.306-.032c.06 0 .115.003.166.008l-.08-.006a1.85 1.85 0 0 0-.086-.002Zm-7.918-3.35a1.53 1.53 0 0 0-.04.032l.04-.031.04-.03-.04.03Zm.429-.185a.68.68 0 0 0 .036-.003l-.036.003ZM36.831 14.908c.328 0 .622.089.873.272l.05.038.009.008.009.008c.234.235.37.53.37.876v3.46h1.964c.346 0 .642.088.894.272l.05.038.009.008.009.009c.234.234.37.529.37.875 0 .37-.137.647-.38.863-.266.238-.583.34-.952.34H38.14v3.915c0 .369-.136.646-.378.862-.264.238-.581.34-.932.34-.363 0-.684-.097-.931-.34-.274-.224-.379-.509-.379-.862v-.251h-2.073c-.066 0-.204.003-.334-.046-.166-.018-.307-.114-.408-.194l-1.643-1.223L29.42 25.4l-.005.004-.005.003a1.968 1.968 0 0 1-.203.122.607.607 0 0 1-.2.064c-.136.047-.248.047-.33.047h-4.315c-.518 0-.987-.041-1.334-.187-.37-.117-.646-.286-.852-.54a1.55 1.55 0 0 1-.422-.868 4.66 4.66 0 0 1-.09-1.016v-6.68c0-.335.107-.638.378-.883h.002l.046-.04c.24-.192.54-.278.884-.278.328 0 .622.089.872.272l.05.037.01.008.009.01c.234.233.37.528.37.875v6.505c0 .175.032.254.054.285l.01.01.008.01.008.01c.017.02.07.066.322.066h3.956l1.674-1.297.004-.002.003-.003c.17-.121.37-.222.576-.274l.013-.003.014-.002c.223-.028.444.046.67.192l.098.066.001.002 1.784 1.321h2.041V16.11c0-.335.107-.64.378-.884h.002l.046-.04c.24-.191.54-.278.884-.278Zm-13.79 10.31.063.022-.063-.021a2.411 2.411 0 0 1-.062-.022l.062.022Zm-.368-.168c.059.036.122.07.19.1l-.054-.025a1.56 1.56 0 0 1-.136-.075Zm-.223-.172a1.247 1.247 0 0 0-.037-.037l.037.037Zm-.175-.192.035.04-.035-.04a1.278 1.278 0 0 1-.032-.04l.032.04Zm1.95-1.339.008.007a.304.304 0 0 1-.027-.025l.018.018Zm6.795-1.473a.518.518 0 0 0-.066.004l.033-.003h.033Zm9.957-1.742a1.01 1.01 0 0 1-.033-.038l.033.038Zm-18.122-4.756a1.703 1.703 0 0 0 .059-.002l-.059.002Zm13.537-.177a.905.905 0 0 0 .05-.015l-.05.015Zm.214-.05-.06.01.054-.009h.006ZM65.687 11.447l.047.005.014.001.013.004c.158.04.298.108.432.186l.132.08.01.006 1.682 1.304h5.366c.472 0 .864.052 1.204.143l.143.04.01.004.011.005c.297.127.57.28.787.484l.043.04.009.01.008.01c.172.215.287.45.361.712l.03.115.002.01.001.009c.043.305.089.665.089 1.03v3.794c0 .347-.136.642-.37.876l-.009.008-.01.008c-.26.209-.571.31-.921.31-.367 0-.685-.098-.931-.317l-.001-.001a1.132 1.132 0 0 1-.378-.884v-3.621a.911.911 0 0 0-.025-.23.211.211 0 0 0-.04-.087c-.004-.005-.027-.023-.088-.04a1.027 1.027 0 0 0-.25-.024h-5.075c-.066 0-.204.003-.334-.047-.166-.017-.307-.113-.408-.193l-1.643-1.223-1.644 1.223-.004.003-.005.003a1.948 1.948 0 0 1-.203.123.61.61 0 0 1-.2.064c-.136.047-.248.046-.33.046h-1.93c-.38 0-.703-.095-.951-.338-.275-.224-.38-.51-.38-.863 0-.336.106-.64.378-.884h.001l.047-.04c.24-.192.543-.278.905-.278h1.899l1.784-1.322c.232-.184.486-.278.722-.264Zm9.781 8.769a1.167 1.167 0 0 1 .042-.03l-.042.03Zm.343-.482.004-.01.009-.033-.013.043Zm-2.447-4.49a.48.48 0 0 0-.067-.014l.067.013Zm-.306-.033c.06 0 .115.002.166.008l-.08-.006a1.719 1.719 0 0 0-.086-.002Zm-7.918-3.35c-.014.01-.027.02-.04.032l.04-.032.04-.028-.04.028Zm.428-.185a.695.695 0 0 0 .036-.003l-.035.003ZM74.554 0c.328 0 .622.089.872.272l.05.038.01.007.008.01c.234.233.37.528.37.875v3.46h1.964c.347 0 .643.088.894.272l.05.038.01.008.008.009c.234.234.37.529.37.875 0 .37-.136.647-.379.863-.266.238-.583.339-.953.339h-1.964v3.916c0 .369-.136.646-.379.862-.264.238-.58.34-.931.34-.363 0-.684-.098-.932-.34-.273-.224-.378-.51-.378-.862v-.251H71.17c-.066 0-.204.003-.334-.047-.166-.017-.307-.113-.408-.193l-1.644-1.223-1.643 1.223-.005.004-.005.003a1.957 1.957 0 0 1-.203.122.607.607 0 0 1-.2.064c-.135.047-.247.047-.329.047h-4.315c-.518 0-.987-.042-1.335-.187-.369-.117-.645-.286-.851-.54a1.55 1.55 0 0 1-.422-.869 4.665 4.665 0 0 1-.09-1.015V1.44c0-.335.106-.639.378-.883l.001-.001.047-.04c.24-.19.54-.278.884-.278.328 0 .622.09.872.272l.05.038.01.008.008.009c.234.234.37.529.37.875v6.506c0 .174.032.253.055.285l.009.01.009.01.008.01c.016.02.07.066.322.066h3.956L68.04 7.03l.003-.003.004-.002c.17-.122.37-.223.575-.274l.013-.003.014-.002c.223-.028.445.046.671.192l.097.066.002.002 1.783 1.321h2.042V1.202c0-.336.106-.64.378-.884h.001l.047-.04c.24-.191.54-.278.884-.278Zm-13.79 10.31c.02.008.041.015.063.021l-.064-.02a2.725 2.725 0 0 1-.061-.022l.061.022Zm-.369-.168c.06.036.123.07.191.1l-.054-.026a1.562 1.562 0 0 1-.136-.074Zm-.222-.172a1.185 1.185 0 0 0-.037-.037l.037.037Zm-.175-.192c.01.013.023.026.034.039l-.034-.039a1.171 1.171 0 0 1-.033-.04l.033.04Zm1.949-1.34.008.008a.323.323 0 0 1-.027-.025l.019.018Zm6.795-1.472a.523.523 0 0 0-.065.004l.033-.003.032-.001ZM78.7 5.224a1.125 1.125 0 0 1-.034-.038l.034.038ZM60.578.468a1.52 1.52 0 0 0 .059-.003l-.06.003ZM74.115.291a1.123 1.123 0 0 0 .05-.015l-.05.015Zm.213-.05-.06.01.054-.009h.006ZM17.378 17.718c.374 0 .697.034.951.073l.105.016.018.003.016.006c.249.083.446.185.62.306l.073.053.026.02.02.025c.125.167.235.357.31.584l.03.1.003.01.002.011c.044.266.09.605.09.97v1.518c0 .377-.022.694-.068.97l-.002.011-.003.011a2 2 0 0 1-.34.683l-.02.026-.026.02c-.192.144-.41.264-.693.358l-.018.006-.02.003c-.287.045-.646.09-1.074.09H7.446c-.126 0-.215.005-.278.016a.217.217 0 0 0-.086.025l-.01.008-.007.02a.736.736 0 0 0-.022.204v.52c0 .096.01.157.022.194a.152.152 0 0 0 .011.028c.059.023.171.051.37.051h11.038c.37 0 .687.1.953.34.242.215.378.493.378.862 0 .346-.135.641-.37.875l-.008.009-.01.008c-.262.21-.574.31-.943.31H6.687c-.45 0-.789-.046-1.057-.09l-.017-.003-.017-.006c-.253-.084-.495-.197-.663-.349l-.032-.03a1.34 1.34 0 0 1-.388-.723c-.07-.286-.09-.629-.09-.977v-1.518c0-.368.02-.692.091-.959.053-.304.184-.538.387-.74l.032-.032c.168-.151.41-.264.663-.348l.017-.006.017-.003c.268-.045.607-.09 1.057-.09h9.932c.114 0 .203-.005.27-.016.07-.011.093-.025.093-.025l.01-.008a.737.737 0 0 0 .03-.224v-.52A.66.66 0 0 0 17 20.2a.15.15 0 0 0-.012-.028 1.136 1.136 0 0 0-.37-.05H5.755c-.382 0-.704-.097-.953-.34-.274-.224-.378-.51-.378-.863 0-.335.106-.639.378-.883v-.001l.048-.04c.24-.192.543-.277.905-.277h11.624Zm-10.99 9.11.141.005.158.002c-.106 0-.205-.003-.299-.008Zm-.907-.15c.03.013.06.025.091.036l-.09-.035a2.165 2.165 0 0 1-.087-.038l.086.038Zm-.385-.222a.9.9 0 0 0 .077.06l-.06-.046-.017-.014Zm-.383-3.91a2.352 2.352 0 0 0-.034.204l.015-.105a2.11 2.11 0 0 1 .019-.099Zm14.67-.436.004-.035.004-.041a5.249 5.249 0 0 1-.008.076Zm-12.854-.695a6.01 6.01 0 0 0 .158-.002l-.158.002Zm10.668-1.331a.548.548 0 0 1-.011-.021l.01.02Zm-.08-.102c.022.016.041.037.057.061l-.012-.018a.23.23 0 0 0-.045-.043Zm-12.434-.77.003.01a.87.87 0 0 1-.01-.042l.007.032ZM8.682 5.422c.328 0 .622.089.872.272l.05.038.01.007.008.01c.234.233.37.528.37.875v.945h3.352c.347 0 .642.088.894.271l.05.038.01.008.008.01c.234.233.37.528.37.875 0 .368-.136.646-.379.861-.265.24-.583.34-.953.34h-2.139l2.837 5.328.003.005.002.005c.194.412.23.806.069 1.183l-.004.009-.005.008c-.103.194-.244.351-.426.461-.182.11-.393.167-.628.179a1.09 1.09 0 0 1-.736-.189l-.04-.03c-.21-.156-.401-.403-.563-.745l-3.032-5.617-3.033 5.617c-.165.308-.325.552-.522.714l-.04.032a1.122 1.122 0 0 1-.775.218h-.01a1.336 1.336 0 0 1-.634-.18.977.977 0 0 1-.394-.468c-.214-.385-.17-.79.047-1.201V15.3L6.16 9.972h-2.14c-.382 0-.704-.096-.953-.34-.274-.223-.378-.509-.378-.861 0-.336.106-.64.378-.884v-.001l.048-.04c.24-.192.544-.277.905-.277h3.353v-.945c0-.336.106-.64.378-.884h.001l.047-.04c.24-.191.54-.278.884-.278Zm3.864 11.414c.106.054.221.086.355.091l-.044-.003a.826.826 0 0 1-.345-.107l.034.019Zm-8.303.083a1.656 1.656 0 0 0-.076-.01l.076.01Zm-.457-.141c.018.01.036.021.055.03l-.055-.03a.764.764 0 0 1-.05-.034l.05.034Zm8.127-.7c.152.326.325.543.499.673l-.065-.053a1.86 1.86 0 0 1-.434-.62Zm-6.929.647a.898.898 0 0 1 .032-.027l-.032.027Zm-1.451-.206a.738.738 0 0 0 .155.187l-.044-.042a.764.764 0 0 1-.14-.201l.029.056Zm1.79-.217a1.98 1.98 0 0 1-.244.335l.061-.07c.082-.1.162-.222.247-.372l-.063.107Zm9.126-7.584-.003-.045V8.67l.003.049ZM2.984 8.38a.884.884 0 0 0 .02-.044l-.02.044Zm.094-.17a.849.849 0 0 0-.052.083l.025-.042a.872.872 0 0 1 .057-.082l-.03.04Zm.139-.155a1.041 1.041 0 0 0-.04.037l.04-.037ZM18.31 6.636c.328 0 .622.09.872.272l.05.038.01.008.009.009c.234.234.37.528.37.875v2.81h1.964c.346 0 .642.088.893.272l.05.038.01.008.009.009c.234.234.37.528.37.875 0 .369-.137.647-.38.863-.265.238-.583.338-.952.339H19.62v2.831c0 .369-.136.646-.378.862-.264.238-.581.34-.932.34-.362 0-.683-.097-.93-.339-.275-.224-.38-.51-.38-.863V7.838c0-.335.107-.64.378-.884h.002l.047-.04c.239-.191.54-.278.883-.278Zm-.851 9.878a.932.932 0 0 0 .07.063l-.038-.033-.032-.03Zm1.93-.52a1.036 1.036 0 0 1 .004-.055l-.004.054ZM54.651 17.718c.375 0 .697.034.952.073l.105.016.017.003.017.006c.248.083.445.185.62.306l.073.053.026.02.019.025c.125.167.236.357.31.584l.03.1.004.01.002.011c.044.266.09.605.09.97v1.518c0 .377-.023.694-.069.97l-.002.011-.002.011a2.002 2.002 0 0 1-.341.683l-.02.026-.026.02c-.192.144-.409.264-.693.358l-.018.006-.019.003c-.287.045-.647.09-1.075.09H44.72c-.126 0-.214.005-.277.016a.217.217 0 0 0-.086.025l-.01.008a.736.736 0 0 0-.03.224v.52c0 .096.01.157.022.194a.155.155 0 0 0 .012.028c.058.023.17.051.37.051h11.037c.37 0 .688.1.954.34.242.215.378.493.378.862 0 .346-.136.641-.37.875l-.009.009-.01.008c-.262.21-.574.31-.943.31H43.96c-.45 0-.788-.046-1.056-.09l-.018-.003-.017-.006c-.253-.084-.495-.197-.662-.349l-.033-.03a1.34 1.34 0 0 1-.387-.723c-.07-.286-.091-.629-.091-.977v-1.518c0-.368.02-.692.092-.959.053-.304.184-.538.386-.74l.033-.032c.167-.151.41-.264.663-.348l.016-.006.018-.003c.268-.045.606-.09 1.056-.09h9.932c.114 0 .204-.005.27-.016.071-.011.093-.025.093-.025l.01-.008.008-.019a.737.737 0 0 0 .022-.205v-.52a.665.665 0 0 0-.022-.194.157.157 0 0 0-.011-.028 1.136 1.136 0 0 0-.37-.05H43.028c-.382 0-.704-.097-.953-.34-.274-.224-.38-.51-.38-.863 0-.335.108-.639.38-.883v-.001l.047-.04c.24-.192.544-.277.906-.277H54.65Zm-10.99 9.11.141.005.158.002c-.106 0-.205-.003-.298-.008Zm-.906-.15.09.036-.09-.035a2.145 2.145 0 0 1-.086-.038l.086.038Zm-.385-.222c.023.02.05.04.077.06l-.06-.046-.017-.014Zm-.384-3.91a2.372 2.372 0 0 0-.033.204l.014-.105a2.15 2.15 0 0 1 .019-.099Zm14.67-.436.004-.035.004-.041a5.249 5.249 0 0 1-.008.076Zm-12.854-.695a6.012 6.012 0 0 0 .158-.002l-.158.002Zm10.668-1.331a.545.545 0 0 1-.01-.021l.01.02Zm-.08-.102c.023.016.041.037.058.061l-.013-.018a.233.233 0 0 0-.044-.043Zm-12.434-.77.003.01a.895.895 0 0 1-.01-.042l.008.032ZM45.955 5.422c.328 0 .622.089.873.272l.05.038.009.007.009.01c.234.233.37.528.37.875v.945h3.352c.346 0 .642.088.893.271l.05.038.01.008.009.01c.234.233.37.528.37.875 0 .368-.137.646-.379.861-.266.24-.583.34-.953.34h-2.14l2.838 5.328.002.005.003.005c.194.412.23.806.068 1.183l-.004.009-.004.008c-.104.194-.244.351-.427.461-.182.11-.393.167-.628.179a1.09 1.09 0 0 1-.735-.189l-.041-.03c-.21-.156-.401-.403-.562-.745l-3.033-5.617-3.032 5.617c-.165.308-.325.552-.522.714l-.04.032a1.122 1.122 0 0 1-.776.218H41.576a1.336 1.336 0 0 1-.635-.18.976.976 0 0 1-.394-.468c-.213-.385-.17-.79.047-1.201V15.3l2.838-5.328h-2.14c-.381 0-.704-.096-.953-.34-.273-.223-.378-.509-.378-.861 0-.336.107-.64.378-.884l.001-.001.048-.04c.24-.192.543-.277.905-.277h3.352v-.945c0-.336.107-.64.378-.884h.002l.047-.04c.238-.191.54-.278.883-.278Zm3.865 11.414c.105.054.22.086.354.091l-.044-.003a.827.827 0 0 1-.345-.107l.035.019Zm-8.303.083a1.663 1.663 0 0 0-.076-.01l.076.01Zm-.457-.141.054.03-.054-.03a.76.76 0 0 1-.051-.034l.05.034Zm8.126-.7c.152.326.326.543.5.673l-.066-.053a1.861 1.861 0 0 1-.434-.62Zm-6.928.647a1.058 1.058 0 0 1 .032-.027l-.032.027Zm-1.452-.206a.738.738 0 0 0 .155.187l-.044-.042a.765.765 0 0 1-.14-.201l.03.056Zm1.791-.217a1.98 1.98 0 0 1-.245.335l.062-.07c.081-.1.162-.222.246-.372l-.063.107Zm9.125-7.584-.003-.045V8.67a.996.996 0 0 1 .003.049ZM40.257 8.38a.903.903 0 0 0 .02-.044l-.02.044Zm.094-.17a.857.857 0 0 0-.052.083l.025-.042a.875.875 0 0 1 .058-.082l-.03.04Zm.14-.155a.971.971 0 0 0-.04.037l.04-.037ZM55.584 6.636c.327 0 .622.09.872.272l.05.038.01.008.008.009c.234.234.37.528.37.875v2.81h1.964c.347 0 .642.088.894.272l.05.038.01.008.008.009c.234.234.37.528.37.875 0 .369-.137.647-.38.863-.265.238-.582.338-.952.339h-1.964v2.831c0 .369-.137.646-.379.862-.264.238-.58.34-.931.34-.363 0-.684-.097-.931-.339-.275-.224-.38-.51-.38-.863V7.838c0-.335.107-.64.379-.884l.048-.04c.239-.191.54-.278.884-.278Zm-.852 9.878a.932.932 0 0 0 .07.063l-.038-.033-.032-.03Zm1.93-.52a1.004 1.004 0 0 1 .005-.055l-.004.054Z" clip-rule="evenodd"/><g clip-path="url(#a)"><path fill="#7CCCDF" d="M2.544 1.627C2.333 2.811 1.45 3.855.31 4.273c1.096.063 2.05 1.067 2.045 2.152a4.19 4.19 0 0 1 2.253-2.629c-.87-.39-1.598-1.082-2.062-2.169Z"/><path fill="#fff" d="M2.378 7.17h-.012a.24.24 0 0 1-.229-.233c-.01-.482-.02-.98-.177-1.426-.126-.36-.378-.776-1.781-1.15A.24.24 0 0 1 0 4.141a.24.24 0 0 1 .158-.234C1.254 3.51 2.104 2.523 2.322 1.39c.023-.115.123-.208.246-.193a.24.24 0 0 1 .231.211c.118 1.032 1.027 1.944 2.07 2.077a.238.238 0 0 1 .063.456c-1.239.518-2.147 1.703-2.314 3.02a.24.24 0 0 1-.24.209ZM.906 4.085c.993.353 1.335.769 1.51 1.27.036.1.064.203.088.306.36-.762.943-1.42 1.667-1.865A2.986 2.986 0 0 1 2.548 2.27 3.963 3.963 0 0 1 .907 4.085Z"/></g><g clip-path="url(#b)"><path fill="#3CBDF9" d="M45.64 37.726c1.441-3.166 4.826-5.289 8.26-5.183 3.435.106 6.725 2.435 8.03 5.685 1.305 3.25.552 7.236-1.839 9.73-2.39 2.492-6.283 3.35-9.5 2.095-.847 2.496-2.929 4.513-5.421 5.258-2.492.745-5.33.2-7.405-1.422a9.497 9.497 0 0 1-10.088 2.291c-3.37-1.256-5.968-4.48-6.519-8.09-.55-3.608.97-7.45 3.814-9.638 1.719-1.322 3.91-2.053 6.064-1.837 2.154.217 4.239 1.43 5.39 3.145.706-1.599 2.183-2.816 3.867-3.186 1.685-.37 3.536.115 5.347 1.152Z"/><path fill="#FFFDF7" d="M57.855 38.565c-.289-.9-.96-.907-1.254-.63-.319.3-.582 1.012-.714 1.97-.345-.348-.823-.756-1.19-.88-.45-.184-1.178-.134-1.235.475-.023.208.052.408.126.6.025.062.07.172.09.207v-.003c.037.089.091.174.132.254.207.363.422.725.68 1.054.236.298.522.557.844.754.072.03.19.143.394.17-.072.004.082.051.183.097.24.08.476.226.727.241a.26.26 0 0 0 .247-.191.333.333 0 0 0 .124-.143c.07-.119.107-.27.159-.392.171-.486.4-.95.577-1.432.25-.683.325-1.444.109-2.15v-.001Z"/><path fill="#FFFDF7" d="m53.595 40.112-.005-.012a.488.488 0 0 0-.008-.02l.013.032ZM53.58 40.08c-.011-.027-.014-.035 0 0ZM29.523 53.638c-.19-.168-.471-.172-.696-.278-1.155-.46-1.707-.578-2.446-1.108a1.256 1.256 0 0 1-.078-.08c-.008-.008-.014-.016-.02-.025-.044-.07-.165-.242-.241-.25-.397-.215-.79.336-.48.664.184.486 1.584 1.075 2.376 1.339.365.124.732.245 1.112.315.176.011.255.127.484-.095.12-.13.106-.35-.01-.481h-.001ZM32.517 53.633c-.195-.125-.423-.033-.636-.026-.15.001-.302.06-.382.197-.203.299.094.733.44.645.195-.04.428.007.594-.115.244-.15.226-.553-.016-.701ZM55.225 34.677c-.694-.037-1.391.047-2.068.197-.29.099-.688.046-.883.319-.202.3.094.733.441.645.85-.198 1.587-.331 2.198-.336.245-.035.54.065.74-.113.32-.355-.006-.748-.428-.712ZM50.354 35.908c-.185.114-.442.182-.512.415-.121.346.278.69.592.51.18-.121.433-.193.503-.422.12-.34-.274-.68-.583-.502Z"/><path fill="#fff" d="m28.11 47.097-.067-.008c-.033-.002-.055-.008-.065-.017l-.083-.022a3.447 3.447 0 0 1-.164-.014.405.405 0 0 1-.121-.032.237.237 0 0 1-.097-.045.165.165 0 0 1-.062-.027.166.166 0 0 0-.062-.026.166.166 0 0 1-.026-.126l.032-.12.06-.23-.1.081-.208.113a2.178 2.178 0 0 1-.184.06.93.93 0 0 1-.163.056.893.893 0 0 1-.334.03c-.11-.01-.211-.026-.303-.05a.919.919 0 0 1-.281-.135l-.242-.172a.215.215 0 0 1-.064-.057l-.045-.052a1.222 1.222 0 0 0-.105-.126.917.917 0 0 1-.086-.122l-.046-.052a.144.144 0 0 0-.043-.06.255.255 0 0 1-.059-.115.957.957 0 0 0-.069-.226 1.183 1.183 0 0 1-.05-.26c0-.073-.007-.144-.022-.214a.406.406 0 0 1 0-.188c.009-.03.02-.084.033-.16.014-.075.024-.128.032-.159l.035-.13a.802.802 0 0 0 .046-.135c.008-.031.02-.061.034-.09a1.49 1.49 0 0 0 .157-.334 1.25 1.25 0 0 1 .08-.187c.064-.069.105-.11.122-.126a.232.232 0 0 0 .073-.09l.083-.126a.313.313 0 0 1 .138-.111 1.7 1.7 0 0 0 .238-.115c.053-.026.099-.047.136-.063.039-.023.065-.032.077-.03l.186-.029a.682.682 0 0 1 .176.007.927.927 0 0 1 .18.028l.29.067.1.027c.044.011.07.022.082.031.03.008.059.026.085.053a.185.185 0 0 0 .085.052c.03.008.064.03.1.066a.342.342 0 0 1 .101.106c.055.04.093.084.114.129a1.584 1.584 0 0 1 .136.234c.024.033.048.069.07.108-.004.018.004.037.025.056a.11.11 0 0 1 .023.025c.016-.009.028-.032.038-.069a.299.299 0 0 1 .064-.091 3.42 3.42 0 0 0 .07-.23 1.18 1.18 0 0 1 .058-.142c0-.026.013-.06.037-.1.025-.045.051-.058.079-.037.014-.003.041.004.083.022.041.017.088.04.14.066l.162.063c.06.023.111.04.155.05.006.003.005.019-.003.05a.25.25 0 0 1-.03.071l-.18.902-.264.998a.182.182 0 0 1-.024.053l-.014.055a1.644 1.644 0 0 1-.038.178l-.046.176a.537.537 0 0 1-.037.138l-.037.139-.041.157c-.01.063-.025.129-.043.197l-.051.194a84.4 84.4 0 0 1-.044.166l-.012.046Zm-.822-1.711.007-.028c.01-.037.037-.115.082-.235a1.14 1.14 0 0 0 0-.673.367.367 0 0 0-.14-.176 2.929 2.929 0 0 1-.111-.069.207.207 0 0 0-.115-.05.654.654 0 0 0-.387.154.192.192 0 0 0-.083.088 3.439 3.439 0 0 0-.053.124c-.04.075-.071.133-.095.173a1.253 1.253 0 0 0-.053.163.55.55 0 0 0 .016.35c.05.113.079.187.09.222a.21.21 0 0 0 .036.05c.018.005.039.026.061.066.054.047.11.068.171.064.062-.01.13-.02.207-.034l.055.015a.93.93 0 0 0 .163-.056.44.44 0 0 0 .139-.111l.01-.037ZM30.07 49.28a1.622 1.622 0 0 1-.292-.224l-.214-.222a.832.832 0 0 0-.072-.09.146.146 0 0 1-.025-.081 1.178 1.178 0 0 0-.108-.271.623.623 0 0 1-.063-.254l-.011-.273c.003-.097.006-.187.007-.27.015-.088.026-.17.033-.247a3.021 3.021 0 0 1 .086-.5 1.915 1.915 0 0 0 .086-.441l.034-.197.022-.132c.01-.057.023-.113.039-.168a.975.975 0 0 0 .051-.185c.077.006.168.022.273.047l.255.043c.018.01.058.017.122.021.07.006.118.011.143.015l.198.034c.107.019.175.034.206.045l-.034.082a.313.313 0 0 0-.022.074l-.01.056a2.68 2.68 0 0 1-.05.234 2.47 2.47 0 0 0-.047.215l-.038.226a42.374 42.374 0 0 1-.084.713 5.632 5.632 0 0 0-.01.222l-.027.16c0 .039-.003.09-.007.154-.006.07 0 .133.016.187.024.05.041.082.052.096l.03.16.103.193a.279.279 0 0 0 .161.135c.074.019.147.031.217.037l.22.018a.338.338 0 0 0 .186-.065c.073-.052.138-.09.193-.112a.335.335 0 0 0 .098-.119c.036-.058.07-.117.099-.177a.785.785 0 0 1 .033-.081l.066-.154c.03-.06.051-.114.066-.163.023-.055.034-.085.035-.091l.048-.166a.777.777 0 0 0 .03-.17.483.483 0 0 1 .032-.188 1.12 1.12 0 0 0 .053-.195 1.753 1.753 0 0 1 .082-.306l.006-.038a.536.536 0 0 0 .027-.102l.018-.104a13 13 0 0 1 .012-.065.51.51 0 0 0-.01-.109c0-.039.003-.077.01-.115a.176.176 0 0 1 .018-.054.18.18 0 0 0 .02-.055l.197.034a.212.212 0 0 1 .065.02c.024.011.042.017.055.02.062.01.115.023.158.036a.59.59 0 0 0 .115.01c.033-.007.059-.005.077.004a.413.413 0 0 0 .077.004.293.293 0 0 0 .12.03.34.34 0 0 1 .144.015c0 .032-.01.076-.032.13a1.553 1.553 0 0 0-.04.168l-.062.368a3.62 3.62 0 0 1-.064.367 2.207 2.207 0 0 0-.043.196.64.64 0 0 1-.042.187l-.013.076-.018.103-.02.113-.009.057c0 .071-.008.157-.025.257s-.039.207-.064.319l-.073.308-.044.254c-.016.094-.029.189-.039.284-.008.09-.021.181-.037.275a1.817 1.817 0 0 1-.45-.038 5.296 5.296 0 0 0-.436-.056c-.015-.028-.017-.07-.007-.127a.354.354 0 0 0 .005-.087.452.452 0 0 0 .005-.086.332.332 0 0 1 .007-.096.106.106 0 0 0-.002-.049c-.012-.002-.034.01-.064.038a.21.21 0 0 1-.096.05c-.069.021-.136.039-.203.053a.622.622 0 0 1-.19.035 1.127 1.127 0 0 1-.431.023 5.726 5.726 0 0 1-.475-.062.596.596 0 0 1-.237-.09l-.172-.126ZM36.122 45.24c-.068.037-.129.077-.182.121a.464.464 0 0 0-.127.193.775.775 0 0 0-.086.35c.006.12.031.248.077.388l.075.227c.05.05.093.11.13.178.035.07.093.12.171.155a.968.968 0 0 0 .172.125c.067.038.135.083.205.133.036.009.08.01.133.007a.206.206 0 0 1 .136.016.953.953 0 0 0 .29-.036l.282-.093c.04-.02.08-.043.118-.069a.57.57 0 0 1 .19-.093c.027-.022.055-.018.085.013.029.024.06.057.094.1.028.024.06.057.093.1.032.036.06.07.085.103l.06.06c.024.013.042.037.054.073a.467.467 0 0 0-.036.042.255.255 0 0 1-.049.067c-.002.034-.023.061-.064.081a.237.237 0 0 0-.082.087c-.182.181-.385.309-.609.382l-.154.051a.95.95 0 0 1-.181.06.775.775 0 0 1-.233.027l-.164.053a1.127 1.127 0 0 1-.166.045.298.298 0 0 1-.103-.006.376.376 0 0 0-.097-.019l-.102-.006-.103-.006a.534.534 0 0 1-.23-.086 1.538 1.538 0 0 0-.22-.119 1.981 1.981 0 0 1-.244-.13.661.661 0 0 1-.178-.173 1.769 1.769 0 0 0-.172-.185.736.736 0 0 1-.144-.224.314.314 0 0 1-.048-.085l-.024-.073-.132-.4a7.275 7.275 0 0 1-.114-.374 1.026 1.026 0 0 1-.01-.37c.01-.07.015-.145.016-.226a.65.65 0 0 1 .07-.245.119.119 0 0 1 .01-.093.321.321 0 0 1 .057-.1l.098-.223c.056-.053.099-.097.127-.133.026-.042.059-.086.097-.133.075-.058.149-.109.221-.153a.76.76 0 0 1 .197-.105l.221-.123a.46.46 0 0 1 .264-.057c.056-.012.113-.02.172-.026a.492.492 0 0 1 .178-.009l.118-.009a1.38 1.38 0 0 1 .1-.002.625.625 0 0 1 .193.006c.07.01.135.023.194.037l.07-.002c.005-.003.013.022.023.072.014.043.023.09.027.142a.28.28 0 0 0 .015.106l.045.136.053.164c.005.012 0 .03-.012.054-.004.008-.009.013-.015.015a.353.353 0 0 1-.085.018.19.19 0 0 0-.087.009l-.17.005a.451.451 0 0 0-.166.015l-.227.075a.904.904 0 0 0-.2.096ZM40.642 47.685c0 .07-.003.143-.01.22 0 .076.004.15.01.22v.162c0 .077-.003.134-.01.172a.067.067 0 0 1-.018.067.553.553 0 0 1-.048.057h-.249a.828.828 0 0 1-.115-.01h-.105a.238.238 0 0 1-.105.02h-.143a.94.94 0 0 1-.134-.01h-.067a.353.353 0 0 1-.057-.066V47.54l-.02-.564.02-.64-.01-.555-.038-.458c-.077 0-.17.003-.277.01a.963.963 0 0 1-.249-.01.731.731 0 0 0-.258-.01 2.05 2.05 0 0 1-.22.01v-.612h.134c.025-.007.044-.007.057 0 .032.025.077.035.134.028.064-.012.093-.025.086-.038l.124-.01h.115c.051 0 .124.004.22.01.102 0 .169-.003.2-.01v-.487c.014-.121.02-.23.02-.325a30.077 30.077 0 0 0 .029-.602v-.258c0-.09.003-.198.01-.325.012-.134.015-.252.009-.354 0-.032-.007-.051-.02-.057a.165.165 0 0 1-.009-.067c0-.032.003-.054.01-.067.006-.02.025-.029.057-.029.057 0 .118.003.181.01.064.006.125.01.182.01h.258a1.679 1.679 0 0 1 .42.047v.153c0 .038-.002.08-.009.124v.124c-.006.16-.01.3-.01.421 0 .115.004.252.01.411 0 .07-.003.144-.01.22 0 .077.004.15.01.22 0 .02-.003.06-.01.124 0 .064-.002.134-.009.21l-.019.201c-.006.064-.01.105-.01.125 0 .031.007.06.02.086.012.025.025.038.038.038.032 0 .073.006.124.019.051.006.093.01.124.01.032 0 .064.006.096.019.038.006.09.01.153.01.057 0 .115.002.172.009h.2c.014 0 .026.003.04.01h.075c.032.095.048.203.048.324a.637.637 0 0 1-.047.278h-.058l-.373.038c-.12.006-.245.01-.373.01a.84.84 0 0 0-.114.009h-.115a.156.156 0 0 1-.01.048V45.754a.537.537 0 0 1 0 .143l.02.507-.039.43c0 .032-.003.09-.01.172 0 .077-.002.163-.009.258 0 .09-.003.175-.01.258-.006.077-.009.13-.009.163ZM43.416 48.618c-.02.127-.045.239-.076.336a3.587 3.587 0 0 1-.1.27c-.009.038-.025.063-.048.077a1.841 1.841 0 0 1-.22-.027.946.946 0 0 1-.225-.047.774.774 0 0 0-.167-.043.658.658 0 0 1-.125-.012.533.533 0 0 0 .017-.104.463.463 0 0 1 .033-.13.696.696 0 0 0 .04-.157l.04-.158.116-.454c.03-.143.065-.29.102-.437.038-.149.06-.248.067-.3a.774.774 0 0 1 .043-.166.794.794 0 0 0 .06-.162c.017-.088.036-.175.058-.261a4.145 4.145 0 0 0 .142-.556c.025-.125.053-.223.085-.294.052 0 .116.01.19.029.074.019.155.036.243.052.07.011.138.025.206.043l.148.038c.012.003.01.022-.005.057l-.016.065c-.046.153-.08.289-.105.408-.022.112-.055.23-.099.35a2.908 2.908 0 0 1-.083.324c-.022.086-.055.19-.099.31l-.038.148a4.92 4.92 0 0 0-.061.28c-.02.1-.041.2-.067.299l-.056.222Zm-.007-3.257a.795.795 0 0 1 .027-.142c.022-.06.041-.124.059-.192a.353.353 0 0 0 .012-.086l.019-.074.007-.027c.007-.005.013-.014.016-.026l.667.17c.03.008.048.016.053.024.006.002.005.018-.002.049l-.154.602a1.228 1.228 0 0 1-.179-.036l-.231-.06-.223-.056c-.06-.022-.088-.04-.085-.051a.33.33 0 0 1 .014-.095ZM46.83 43.72c.045-.012.099-.032.163-.057a.51.51 0 0 1 .19-.038h.23a2.534 2.534 0 0 1 .411 0c.064 0 .121.01.172.029.013 0 .029.003.048.009.02.006.045.026.077.057.063.02.124.051.181.096a.745.745 0 0 1 .153.162c.051.064.096.131.134.201.044.064.083.128.115.191a.44.44 0 0 1 .057.201c.013.083.029.15.048.201 0 .09.003.175.01.258.012.083.018.169.018.258 0 .147-.003.287-.01.42-.005.135-.009.275-.009.421l-.019.316c0 .025-.013.07-.038.134a.923.923 0 0 0-.048.143c-.019.064-.044.14-.076.23a.604.604 0 0 1-.067.143.35.35 0 0 0-.067.086l-.038.077a.142.142 0 0 1-.039.066.196.196 0 0 1-.076.058.965.965 0 0 0-.115.057c-.044.032-.086.06-.124.086-.032.013-.048.022-.048.029 0 .013-.022.025-.067.038l-.172.038a.681.681 0 0 1-.191.01 1.104 1.104 0 0 0-.153-.01c-.178 0-.357-.035-.535-.105a.42.42 0 0 1-.172-.038.338.338 0 0 1-.115-.086 1.144 1.144 0 0 1-.096-.086 1.16 1.16 0 0 1-.095-.086.972.972 0 0 1-.125-.172 4.782 4.782 0 0 1-.095-.182 3.22 3.22 0 0 0-.105-.21.807.807 0 0 1-.077-.249c-.013-.146-.025-.28-.038-.401a6.992 6.992 0 0 1-.01-.364v-.392a.198.198 0 0 1-.01-.076c0-.038.004-.064.01-.077v-.095a1.228 1.228 0 0 0 .029-.258c0-.051.016-.102.048-.153-.007.013-.003.003.01-.029l.057-.114.048-.115c.012-.032.019-.045.019-.038l.067-.125a.645.645 0 0 0 .057-.067.836.836 0 0 1 .076-.086c.039-.032.087-.073.144-.124.064-.051.15-.111.258-.182Zm.698 1.587c-.026 0-.051.013-.077.038a.25.25 0 0 0-.038.067.594.594 0 0 0-.067.24c0 .172.06.286.182.344.032 0 .057-.01.076-.03.026-.025.038-.05.038-.076 0-.063.007-.137.02-.22a.453.453 0 0 0-.02-.258.23.23 0 0 1-.057-.076c-.006-.02-.025-.029-.057-.029ZM49.39 42.921a.183.183 0 0 0-.032-.049.088.088 0 0 1-.022-.053l.026-.01a.155.155 0 0 1 .04-.028l.053-.023a.242.242 0 0 1 .088-.038.49.49 0 0 0 .084-.046l.263-.114c.012-.005.026-.004.043.003l.038.015.051.071c.008.018.02.037.035.058a.671.671 0 0 1 .082.142.18.18 0 0 1 .031.049c.016.035.026.051.032.049a.297.297 0 0 0 .022-.093.14.14 0 0 1 .018-.08l.02-.05a.11.11 0 0 0 .019-.03.376.376 0 0 1 .036-.036l.057-.087c.04-.052.076-.095.11-.13.04-.038.096-.1.17-.187a1.233 1.233 0 0 1 .215-.155.798.798 0 0 1 .15-.085c.055-.032.104-.056.145-.073a.96.96 0 0 1 .17-.042 7.7 7.7 0 0 1 .178-.045 1.65 1.65 0 0 0 .148-.043.486.486 0 0 1 .152-.034c.181.02.328.04.441.06.113.02.224.067.33.139.017.007.041.014.072.021a.35.35 0 0 1 .106.028.442.442 0 0 1 .131.089.3.3 0 0 1 .082.069c.066.09.128.16.185.212a.674.674 0 0 1 .154.214c.026.045.064.091.112.14a.44.44 0 0 1 .107.151c.025.059.057.125.096.199.036.067.077.171.123.31l.049.115c.02.033.039.066.054.102l.174.404.049.114a.7.7 0 0 1 .036.11l.053.122a.822.822 0 0 1 .077.154c.007.018.006.032-.003.043a.134.134 0 0 1-.049.032 9.018 9.018 0 0 0-.044.018l-.15.065a.692.692 0 0 1-.148.064l-.275.086a.287.287 0 0 0-.097.042c-.038.023-.069.026-.09.008a8.162 8.162 0 0 1-.13-.278 1.757 1.757 0 0 0-.059-.162.836.836 0 0 0-.054-.101 4.439 4.439 0 0 1-.097-.177l-.173-.477a.796.796 0 0 0-.066-.128.29.29 0 0 0-.042-.075.436.436 0 0 0-.043-.076l-.06-.14a.942.942 0 0 0-.198-.29c-.08-.09-.17-.177-.267-.26a.657.657 0 0 0-.182-.109.69.69 0 0 0-.29-.042.156.156 0 0 0-.047.01l-.21.07a.789.789 0 0 0-.284.184c-.088.086-.135.155-.14.206-.012.088-.021.154-.03.2l-.025.135a15.435 15.435 0 0 0 .04.285c.013.064.029.133.047.208.017.07.036.13.058.183l.053.123a.692.692 0 0 1 .037.11l.088.253.09.357.083.193c.028.064.052.127.07.188l.088.202a.185.185 0 0 1-.073.073.863.863 0 0 0-.126.095c-.018.022-.064.045-.136.07a2.002 2.002 0 0 0-.255.109.993.993 0 0 1-.255.11c-.07.015-.105.02-.108.015l-.019-.044-.045-.106a1.563 1.563 0 0 0-.059-.162l-.072-.167a1.328 1.328 0 0 0-.044-.126 3.591 3.591 0 0 0-.122-.26 3.553 3.553 0 0 1-.122-.26 2.186 2.186 0 0 0-.099-.207 3.673 3.673 0 0 0-.103-.216 2.386 2.386 0 0 1-.067-.18 3.412 3.412 0 0 0-.093-.24 5.041 5.041 0 0 0-.133-.286l-.09-.211a5.214 5.214 0 0 1-.13-.277 2.467 2.467 0 0 1-.103-.289Z"/></g><defs><clipPath id="a"><path fill="#fff" d="M0 1.195h5.079V7.17H0z"/></clipPath><clipPath id="b"><path fill="#fff" d="m19.121 38.82 41.113-8.946 4.609 21.18L23.73 60z"/></clipPath></defs></svg>