<svg  viewBox="0 0 190 172" fill="none" xmlns="http://www.w3.org/2000/svg">
<g clip-path="url(#clip0_661_2904)">
<g opacity="0.3">
<path d="M190 164.804C190 167.235 178.193 169.202 163.627 169.202C151.593 169.202 141.444 167.858 138.276 166.026C125.194 169.609 101.549 172.001 74.5494 172.001C33.3765 172 0 166.434 0 159.568C0 152.703 33.3765 147.137 74.5501 147.137C115.724 147.137 149.1 152.703 149.1 159.568C149.1 160.123 148.883 160.67 148.456 161.205C152.748 160.702 157.982 160.406 163.627 160.406C178.193 160.406 190 162.377 190 164.804Z" fill="#000072"/>
</g>
<path d="M128.568 123.98V124.22C128.546 130.084 127.696 135.689 125.807 140.777C122.156 149.449 114.472 155.453 100.282 158.416C93.5634 159.823 85.3849 160.545 75.4916 160.545C50.8868 160.545 34.6472 160.47 25.6223 152.873C25.4792 152.76 25.3427 152.643 25.2062 152.523C25.1088 152.442 25.0173 152.361 24.9265 152.276C19.8581 147.597 17.5088 139.013 16.7089 129.724C16.6344 128.882 16.5724 128.028 16.5267 127.177C16.5267 127.174 16.5267 127.174 16.5267 127.174C16.4905 126.472 16.4647 125.13 16.4522 124.432C16.4522 124.392 16.4522 124.36 16.4492 124.331V124.188C16.7422 119.538 17.2528 115.097 18.1212 110.519C19.3962 103.813 21.4364 96.8105 24.6926 88.4444C27.1328 82.1799 29.0881 74.8174 28.593 68.264C28.4011 65.7916 28.3163 63.2574 28.3163 60.6708C28.3163 58.1558 28.3974 55.6871 28.5768 53.2759C29.0482 46.8235 30.2229 40.7992 32.4122 35.4809C32.4151 35.478 32.4151 35.4743 32.4151 35.4713C32.5125 35.2797 32.6107 35.0911 32.711 34.9025C37.2717 26.3152 44.9404 19.6189 56.7528 16.0028C56.7558 16.0028 56.7624 16.0028 56.7661 15.9999C61.2553 14.6255 66.3473 13.6963 72.0923 13.274L70.7516 13.1606C69.7916 10.5777 65.2176 6.08398 69.281 2.31541C72.5763 -0.744993 76.8058 3.50479 77.8211 6.86732C77.9347 7.24094 78.4231 7.33158 78.6637 7.02355C78.7744 6.88353 78.8976 6.72804 79.0312 6.56224C80.7231 4.49593 84.2427 0.83716 87.1705 2.02359C91.2598 3.68091 89.1259 9.92183 87.0207 13.4376C87.9807 13.5482 88.9141 13.6779 89.8217 13.8341C89.8933 13.8437 89.9678 13.8569 90.046 13.8695C90.2083 13.8989 90.3714 13.9277 90.5308 13.9572C90.5603 13.9638 90.5891 13.9667 90.6186 13.9734C90.8753 14.022 91.1292 14.0706 91.38 14.1193C91.442 14.1326 91.504 14.1451 91.5653 14.1583C91.8161 14.2107 92.0633 14.2622 92.3068 14.3175C92.3688 14.3308 92.4337 14.3433 92.4957 14.3595C92.7466 14.4148 92.9901 14.473 93.2372 14.5349C93.2955 14.5482 93.3546 14.5607 93.4129 14.5769C93.618 14.6255 93.8231 14.6808 94.0275 14.7361C94.1382 14.7619 94.2489 14.7914 94.3595 14.8238C94.5743 14.882 94.789 14.9409 95.0007 15.0021C95.0494 15.0154 95.0981 15.0316 95.1439 15.0441C95.349 15.1023 95.5505 15.1642 95.7519 15.2291C95.9113 15.2748 96.0706 15.3263 96.2271 15.3787C96.3082 15.4045 96.3931 15.431 96.4743 15.4597C96.6698 15.5216 96.8616 15.5865 97.0535 15.658C97.1575 15.6933 97.2616 15.7294 97.3656 15.7685C97.5154 15.8171 97.6615 15.8724 97.8083 15.9306C97.9485 15.9793 98.088 16.0316 98.2245 16.0868C98.3256 16.1259 98.4296 16.165 98.5299 16.207C98.6797 16.2652 98.8258 16.3241 98.9727 16.3853C99.1387 16.4501 99.301 16.5216 99.4641 16.5931C99.5452 16.6255 99.6235 16.658 99.7017 16.6941C99.8515 16.7589 99.9976 16.8238 100.141 16.8923C100.284 16.9542 100.424 17.019 100.563 17.0876C100.642 17.1229 100.723 17.162 100.801 17.2011C100.951 17.2725 101.101 17.344 101.247 17.4184C101.377 17.4803 101.504 17.5452 101.63 17.6137C101.754 17.6756 101.875 17.7405 101.995 17.8053C102.196 17.9092 102.399 18.0198 102.597 18.1333C102.773 18.2305 102.948 18.3285 103.124 18.4354C103.193 18.4708 103.257 18.5098 103.322 18.5526C103.433 18.6145 103.544 18.6793 103.651 18.7508C103.817 18.8481 103.979 18.952 104.142 19.0559C104.145 19.0559 104.152 19.0588 104.155 19.0625C104.37 19.1988 104.582 19.3388 104.79 19.4781C104.803 19.4848 104.816 19.4943 104.832 19.5076C105.005 19.6248 105.177 19.7412 105.346 19.8621C105.418 19.9107 105.487 19.9593 105.554 20.008C105.717 20.1281 105.876 20.2452 106.036 20.3624C106.043 20.369 106.052 20.3757 106.062 20.3816C106.443 20.6645 106.81 20.9564 107.171 21.2585C107.246 21.3204 107.324 21.3853 107.399 21.4501C107.513 21.5444 107.627 21.6417 107.741 21.7427C107.803 21.795 107.865 21.8466 107.923 21.9048C108.063 22.0249 108.2 22.1487 108.336 22.2718C108.359 22.2946 108.385 22.3174 108.408 22.3403C108.564 22.4862 108.72 22.6328 108.873 22.7788C108.918 22.8244 108.963 22.8664 109.006 22.9121C109.13 23.0359 109.253 23.1561 109.377 23.2828C109.599 23.5068 109.816 23.7345 110.031 23.9681C110.334 24.2931 110.626 24.6247 110.906 24.9593C110.925 24.9821 110.945 25.0013 110.961 25.0241C111.105 25.1966 111.248 25.3683 111.388 25.5437C111.541 25.7323 111.693 25.9268 111.84 26.1221C111.99 26.3137 112.133 26.509 112.276 26.7036C112.29 26.7227 112.306 26.7426 112.318 26.7618C112.442 26.9342 112.566 27.1059 112.683 27.2783C112.953 27.6615 113.21 28.0514 113.461 28.4478C113.565 28.607 113.662 28.7691 113.76 28.932C114.089 29.4685 114.398 30.0138 114.697 30.5694C114.798 30.7581 114.899 30.9496 114.997 31.1412C115.602 32.3174 116.149 33.5392 116.64 34.803C116.709 34.9717 116.774 35.1442 116.839 35.3166C117.109 36.041 117.362 36.7757 117.6 37.5229C117.681 37.7735 117.756 38.0233 117.834 38.2768C117.899 38.5008 117.967 38.7248 118.029 38.9525C118.072 39.0984 118.114 39.2451 118.15 39.391C118.192 39.5273 118.228 39.6673 118.263 39.8066C118.354 40.1449 118.442 40.489 118.527 40.8331C118.631 41.2488 118.728 41.6717 118.823 42.094C118.881 42.3637 118.936 42.6305 118.992 42.8994C119.047 43.1691 119.102 43.4389 119.154 43.7115C119.366 44.8066 119.551 45.9208 119.71 47.0519C119.772 47.497 119.831 47.9421 119.883 48.3909C119.968 49.0703 120.042 49.7557 120.111 50.4476C120.427 53.6805 120.563 57.0371 120.563 60.4778C120.563 62.0275 120.537 63.5647 120.475 65.0783C120.189 72.3789 121.097 79.6891 123.318 86.6817C125.524 93.6182 127.135 103.639 127.957 112.447C127.96 112.47 127.964 112.493 127.964 112.512C128.303 116.174 128.504 119.621 128.56 122.549C128.56 122.611 128.562 122.673 128.562 122.737C128.568 123.161 128.568 123.577 128.568 123.98Z" fill="#575B5A"/>
<path d="M122.123 132.221C120.128 141.396 109.912 152.921 79.8526 152.921C42.6274 152.921 28.0442 142.501 30.5412 129.542C33.3915 114.749 58.881 102.207 58.881 102.207C58.881 102.207 53.609 88.5279 46.1005 68.713C37.272 45.4192 45.3051 26.0538 67.0736 29.1459C81.3741 31.1776 78.7584 63.3299 78.7584 63.3299C79.8526 62.6438 83.0609 60.5893 84.3868 60.5893C85.5733 60.5893 89.0014 62.7573 90.0123 63.3299C90.0123 63.3299 83.0343 31.6131 99.2083 31.6131C113.628 31.6131 116.666 49.0957 113.025 67.276C109.166 86.5404 103.247 95.0466 104.758 99.2721C110.104 114.254 124.513 121.234 122.123 132.221Z" fill="white"/>
<g opacity="0.35">
<path d="M128.564 123.981V124.221C128.542 130.086 127.692 135.691 125.803 140.778C122.152 149.45 114.468 155.455 100.278 158.418C93.5595 159.825 85.381 160.546 75.4877 160.546C50.8829 160.546 34.6433 160.472 25.6184 152.875C25.4753 152.761 25.3388 152.644 25.2023 152.524C25.1049 152.443 25.0134 152.362 24.9226 152.277C19.8542 147.599 17.5049 139.014 16.705 129.725C16.6305 128.884 16.5685 128.029 16.5228 127.178C16.5228 127.175 16.5228 127.175 16.5228 127.175C16.4874 126.473 16.4608 125.132 16.4483 124.433C16.4483 124.394 16.4483 124.361 16.4453 124.332V124.189C16.7382 119.54 17.2488 115.098 18.1173 110.52C18.6899 109.715 19.0286 109.236 19.0286 109.236C19.0286 109.236 12.7626 145.597 53.0448 152.153C103.07 160.295 125.196 145.002 128.56 122.74C128.564 123.163 128.564 123.578 128.564 123.981Z" fill="#000072"/>
</g>
<g opacity="0.35">
<path d="M120.108 50.4507L118.839 60.6562C118.839 60.6562 117.447 34.537 103.744 24.445C100.937 22.3787 97.7416 20.7671 94.3032 19.5681C94.5762 19.9122 94.7031 20.2637 94.661 20.6079C94.4758 22.1348 91.0853 22.98 87.0876 22.5018C83.0861 22.0206 79.9952 20.3964 80.1775 18.8695C80.2749 18.0442 81.3197 17.4171 82.8906 17.0921C69.6821 15.7148 55.3616 18.7332 46.083 24.2107C37.1268 29.4973 32.0481 43.3085 28.5742 53.2767C29.0457 46.8243 30.2204 40.8001 32.4096 35.4817C32.4126 35.4788 32.4126 35.4751 32.4126 35.4722C32.51 35.2806 32.6081 35.0919 32.7085 34.9033C37.6404 25.4678 44.0133 18.9565 56.7503 16.0037C56.7532 16.0037 56.7599 16.0037 56.7636 16.0007C61.0904 15 66.1522 14.409 72.1414 14.2527C72.1414 14.2527 78.1277 14.4738 79.0545 14.4738H79.064C81.0976 14.493 83.0168 13.4989 84.0771 11.7642C85.7137 9.08035 87.3532 5.74066 85.9247 4.9868C83.3872 3.64488 79.129 8.34344 79.129 8.34344L79.0279 6.56305C80.7198 4.49675 84.2394 0.837974 87.1673 2.0244C91.2565 3.68172 89.1226 9.92264 87.0175 13.4385C87.9775 13.549 88.9108 13.6787 89.8184 13.8349C87.7074 13.549 88.3383 14.7995 86.5098 15.0891L90.3423 14.8975C90.3423 14.8975 90.4139 14.5372 90.5275 13.9587C90.557 13.9653 90.5858 13.9683 90.6153 13.9749C90.8721 14.0236 91.1259 14.0722 91.3768 14.1208C91.4388 14.1341 91.5007 14.1466 91.562 14.1599C91.8129 14.2122 92.06 14.2638 92.3035 14.3191C92.3655 14.3323 92.4305 14.3449 92.4924 14.3611C92.7433 14.4163 92.9868 14.4746 93.234 14.5365C93.2923 14.5497 93.3513 14.5622 93.4096 14.5785C93.6147 14.6271 93.8199 14.6824 94.0242 14.7376C94.1349 14.7634 94.2456 14.7929 94.3563 14.8253C94.571 14.8835 94.7857 14.9425 94.9975 15.0037C95.0462 15.0169 95.0949 15.0331 95.1406 15.0457C95.3458 15.1039 95.5472 15.1658 95.7486 15.2306C95.908 15.2763 96.0674 15.3279 96.2238 15.3802C96.305 15.406 96.3898 15.4325 96.471 15.4613C96.6665 15.5232 96.8584 15.588 97.0502 15.6595C97.1543 15.6949 97.2583 15.731 97.3623 15.7701C97.5121 15.8187 97.6582 15.874 97.8051 15.9322C97.9453 15.9808 98.0847 16.0331 98.2212 16.0884C98.3223 16.1275 98.4263 16.1665 98.5267 16.2085C98.6765 16.2667 98.8226 16.3257 98.9694 16.3868C99.1354 16.4517 99.2978 16.5232 99.4608 16.5947C99.542 16.6271 99.6202 16.6595 99.6984 16.6956C99.8482 16.7605 99.9943 16.8253 100.137 16.8938C100.281 16.9557 100.421 17.0206 100.56 17.0891C100.638 17.1245 100.72 17.1636 100.798 17.2026C100.948 17.2741 101.097 17.3456 101.244 17.42C101.373 17.4819 101.5 17.5467 101.627 17.6153C101.751 17.6772 101.871 17.742 101.992 17.8069C102.193 17.9108 102.395 18.0213 102.594 18.1348C102.769 18.2321 102.945 18.3301 103.121 18.4369C103.189 18.4723 103.254 18.5114 103.319 18.5541C103.43 18.616 103.54 18.6809 103.647 18.7523C103.813 18.8496 103.976 18.9535 104.139 19.0574C104.142 19.0574 104.148 19.0604 104.152 19.0641C104.367 19.2004 104.579 19.3404 104.787 19.4797C104.8 19.4863 104.813 19.4959 104.829 19.5091C105.001 19.6263 105.173 19.7427 105.343 19.8636C105.415 19.9122 105.483 19.9609 105.551 20.0095C105.713 20.1296 105.873 20.2468 106.033 20.364C106.04 20.3706 106.049 20.3772 106.059 20.3831C106.436 20.669 106.807 20.9616 107.168 21.2601C107.242 21.322 107.321 21.3868 107.396 21.4517C107.509 21.546 107.624 21.6433 107.737 21.7442C107.799 21.7965 107.861 21.8481 107.92 21.9063C108.06 22.0264 108.196 22.1502 108.333 22.2733C108.356 22.2962 108.382 22.319 108.404 22.3418C108.561 22.4878 108.717 22.6344 108.869 22.7803C108.915 22.826 108.96 22.868 109.003 22.9137C109.127 23.0375 109.25 23.1576 109.374 23.2844C109.595 23.5084 109.813 23.7361 110.028 23.9697C110.327 24.2947 110.62 24.6263 110.903 24.9608C110.922 24.9837 110.942 25.0028 110.958 25.0257C111.101 25.1981 111.245 25.3698 111.385 25.5452C111.537 25.7339 111.69 25.9284 111.837 26.1237C111.987 26.3153 112.13 26.5106 112.273 26.7051C112.286 26.7243 112.303 26.7442 112.315 26.7633C112.439 26.9358 112.562 27.1075 112.68 27.2799C112.95 27.6631 113.207 28.0529 113.457 28.4494C113.561 28.6086 113.659 28.7707 113.757 28.9335C114.085 29.47 114.394 30.0153 114.694 30.571C114.795 30.7596 114.895 30.9512 114.994 31.1428C115.599 32.3189 116.145 33.5407 116.637 34.8045C116.705 34.9733 116.77 35.1457 116.835 35.3181C117.105 36.0425 117.359 36.7772 117.597 37.5245C117.678 37.775 117.753 38.0248 117.831 38.2783C117.896 38.5024 117.964 38.7264 118.026 38.9541C118.068 39.1 118.111 39.2466 118.146 39.3925C118.189 39.5289 118.225 39.6689 118.26 39.8082C118.351 40.1464 118.439 40.4905 118.524 40.8347C118.628 41.2503 118.725 41.6733 118.819 42.0955C118.878 42.3653 118.933 42.632 118.988 42.901C119.044 43.1707 119.099 43.4404 119.151 43.7131C119.363 44.8081 119.548 45.9223 119.707 47.0535C119.769 47.4986 119.827 47.9437 119.88 48.3925C119.965 49.0734 120.041 49.7587 120.108 50.4507Z" fill="white"/>
</g>
<g opacity="0.35">
<path d="M85.4829 15.1441H85.457L86.4982 15.0918C86.2215 15.1345 85.8894 15.1537 85.4829 15.1441Z" fill="white"/>
</g>
<g opacity="0.35">
<path d="M90.5294 13.9584C90.4158 14.5369 90.3442 14.8972 90.3442 14.8972L86.5117 15.0888C88.4021 14.7896 87.6635 13.461 90.0446 13.8707C90.2069 13.8995 90.37 13.926 90.5294 13.9584Z" fill="white"/>
</g>
<g opacity="0.35">
<path d="M90.5294 13.9584C90.4158 14.5369 90.3442 14.8972 90.3442 14.8972L86.5117 15.0888C88.4021 14.7896 87.6635 13.461 90.0446 13.8707C90.2069 13.8995 90.37 13.926 90.5294 13.9584Z" fill="white"/>
</g>
<path d="M75.4876 161.806C46.7935 161.806 32.6044 160.603 24.3757 153.476C24.2798 153.397 24.1713 153.3 24.0629 153.199C20.257 149.773 17.7748 144.874 16.2644 137.792C15.9523 136.332 15.6763 133.643 15.4454 129.801C15.3081 127.546 15.2181 125.393 15.1871 124.476L15.1864 124.432C15.1864 124.432 15.1864 124.432 15.1864 124.433L15.1842 124.388C15.179 124.28 15.1797 124.221 15.1797 124.221L15.1937 123.976C15.9892 111.559 18.4027 101.122 23.5117 87.9891C26.4167 80.5323 27.7367 73.7446 27.3309 68.36C27.1449 65.9665 27.0505 63.3792 27.0505 60.6725C27.0505 50.3601 28.3912 42.0337 31.1493 35.2276V35.204L31.2593 34.9586C31.26 34.9572 31.26 34.9564 31.2607 34.9557L31.35 34.7575C34.4158 28.025 39.2916 22.6153 45.8468 18.6758C52.2116 14.8505 59.8899 12.5918 68.6941 11.9515C68.6505 11.8785 68.607 11.8048 68.5627 11.7304C67.0626 9.20572 64.5517 4.97953 68.4174 1.39371C69.7676 0.13948 71.3858 -0.279824 73.0947 0.182957C75.4595 0.822598 77.4709 3.04808 78.5135 5.21165C80.7434 2.61846 84.291 -0.499424 87.6387 0.856496C89.0377 1.42245 90.0139 2.47623 90.461 3.90437C91.3531 6.7518 90.0102 10.5137 88.6496 13.0922C100.312 15.4518 108.877 21.0464 114.122 29.7391C118.718 37.3536 120.952 47.4722 120.952 60.6725C120.952 62.2443 120.919 63.8169 120.853 65.3467C120.635 70.3622 120.665 79.9885 123.317 88.1211C126.574 98.1158 128.389 105.573 129.203 112.299C129.207 112.329 129.211 112.365 129.214 112.403C129.587 115.519 129.771 118.647 129.814 122.539L129.817 122.74C129.823 123.217 129.823 123.716 129.823 124.222V124.434C129.823 131.184 128.888 136.69 126.963 141.267C122.912 150.891 114.514 156.732 100.534 159.652C93.611 161.101 85.4177 161.806 75.4876 161.806ZM17.7076 124.41C17.7394 125.325 17.8272 127.435 17.9622 129.65C18.1828 133.314 18.4485 135.948 18.7311 137.267C20.1441 143.894 22.3134 148.235 25.7659 151.343C25.8544 151.425 25.9282 151.49 26.0071 151.556C33.6012 158.134 48.011 159.288 75.4876 159.288C85.2421 159.288 93.2664 158.6 100.019 157.186C113.116 154.451 120.939 149.083 124.64 140.292C126.433 136.029 127.304 130.842 127.304 124.433V124.222C127.304 123.727 127.304 123.239 127.297 122.757L127.294 122.551C127.253 118.701 127.078 115.741 126.708 112.665L126.699 112.576C125.897 105.999 124.116 98.7031 120.922 88.9C118.147 80.3908 118.111 70.4226 118.336 65.2377C118.4 63.7447 118.433 62.2082 118.433 60.6718C118.433 33.3853 108.269 18.9507 86.4485 15.2433L84.5515 14.9212L85.6044 13.3125C87.2978 10.7267 88.733 6.8137 88.0571 4.65602C87.8328 3.94122 87.3996 3.47549 86.6942 3.18956C84.7647 2.40844 81.7926 5.0569 79.655 7.79675C79.2536 8.31111 78.605 8.55798 77.9624 8.4386C77.3197 8.31996 76.8017 7.85791 76.6113 7.23301C76.0565 5.39515 74.2472 3.10187 72.4372 2.61182C71.5769 2.3797 70.8457 2.57793 70.1358 3.23673C67.9311 5.2824 68.9929 7.51377 70.7335 10.443C71.1947 11.2197 71.6308 11.9537 71.8964 12.6338L72.5354 14.2705L70.7785 14.3494C52.782 15.1548 39.6163 22.7487 33.6721 35.7427V35.9925L33.4817 36.1863C30.852 42.6837 29.5732 50.6969 29.5732 60.671C29.5732 63.3129 29.6655 65.8353 29.8462 68.1669C30.2868 74.0092 28.9468 80.984 25.8633 88.9007C20.8377 101.818 18.4735 112.062 17.7032 124.257V124.258C17.7062 124.305 17.7076 124.354 17.7076 124.41ZM126.703 112.615C126.704 112.622 126.705 112.629 126.706 112.636C126.705 112.629 126.704 112.623 126.703 112.615Z" fill="#000072"/>
<path d="M95.9059 54.0814C96.474 52.878 97.4569 51.8773 98.6492 51.1883C99.8431 50.5074 101.306 50.1522 102.781 50.3452C103.516 50.4351 104.234 50.6805 104.887 51.0254C105.058 51.0991 105.199 51.2178 105.351 51.3194C105.5 51.4241 105.648 51.5309 105.792 51.6415C106.077 51.8633 106.303 52.1374 106.547 52.3909C107.445 53.469 107.919 54.7269 108.057 55.9672C108.109 56.4358 107.771 56.8581 107.301 56.9104C107.009 56.9428 106.735 56.8242 106.557 56.6164L106.503 56.5523C105.795 55.7144 105.185 54.9605 104.498 54.4292C103.819 53.8979 103.124 53.5818 102.362 53.4786C101.602 53.3762 100.768 53.4933 99.9508 53.8073C99.1274 54.1146 98.3489 54.6238 97.6317 55.2678L97.5734 55.3201C97.1381 55.7107 96.4681 55.6746 96.077 55.2406C95.7819 54.9134 95.7295 54.455 95.9059 54.0814Z" fill="#000072"/>
<path d="M68.5122 55.3219C67.8127 54.7081 67.0564 54.2114 66.2507 53.8872C65.4516 53.557 64.6244 53.3927 63.8585 53.4273C63.0889 53.4649 62.3939 53.6904 61.7062 54.1075C61.0111 54.5246 60.3699 55.1731 59.6402 55.9321L59.5848 55.9896C59.2572 56.3308 58.7141 56.3418 58.3725 56.0146C58.1637 55.8149 58.0796 55.5305 58.1187 55.2652C58.3076 54.0544 58.8816 52.8348 59.8792 51.8673C60.1382 51.6359 60.3854 51.3868 60.6997 51.2144C61.0015 51.0272 61.3033 50.8327 61.6442 50.7155C61.9792 50.5865 62.3142 50.4509 62.6691 50.4008L63.1959 50.3013C63.3715 50.28 63.5479 50.2763 63.7242 50.2689C65.1387 50.2122 66.4927 50.6197 67.6187 51.3028C68.7388 51.9948 69.6817 52.9587 70.2337 54.1318C70.4823 54.6609 70.2551 55.2917 69.7253 55.5401C69.332 55.7243 68.8826 55.6469 68.5757 55.3779L68.5122 55.3219Z" fill="#000072"/>
<path d="M74.0479 114.748C74.0095 114.862 73.9719 114.976 73.9336 115.095C73.9336 115.095 73.9225 115.074 73.9062 115.035C73.9284 114.981 73.9822 114.883 74.0479 114.748Z" fill="#C1C1C1"/>
<path d="M73.9046 115.035C73.8832 115.074 73.8722 115.095 73.8722 115.095C73.8338 114.976 73.7962 114.862 73.7578 114.748C73.8235 114.884 73.8781 114.982 73.9046 115.035Z" fill="#C1C1C1"/>
<g opacity="0.35">
<path d="M71.2361 131.179C70.9859 131.164 70.735 131.146 70.4805 131.125C60.1651 130.316 47.53 120.549 40.2701 112.677C40.1661 112.564 54.122 101.995 54.122 101.995L54.4378 101.594C54.4378 101.594 61.9242 105.947 74.203 115.448C75.6898 116.596 76.8704 117.748 77.7787 118.875C78.2472 119.448 78.6398 120.017 78.9689 120.572C82.5527 126.663 78.2391 131.624 71.2361 131.179Z" fill="#000072"/>
</g>
<g opacity="0.35">
<path d="M62.1129 113.204C61.9144 112.983 61.8008 112.84 61.8008 112.817C61.8008 112.792 61.9402 112.935 62.1129 113.204Z" fill="black"/>
</g>
<g opacity="0.35">
<path d="M93.7895 132.134C94.0367 132.092 94.2839 132.046 94.5348 131.997C104.701 130.074 116.198 118.993 122.558 110.38C122.649 110.256 107.626 101.264 107.626 101.264L107.268 100.9C107.268 100.9 100.3 106.04 89.1277 116.818C87.7745 118.121 86.7267 119.394 85.946 120.613C85.5424 121.233 85.2141 121.841 84.947 122.429C82.0486 128.872 86.8765 133.336 93.7895 132.134Z" fill="#000072"/>
</g>
<path d="M92.7665 125.311C93.0136 125.269 93.2608 125.224 93.5117 125.175C103.678 123.252 114.291 118.066 120.65 109.453C120.741 109.329 120.836 109.2 120.923 109.073C120.943 109.047 120.962 109.024 120.979 108.998L106.602 94.4422L106.244 94.0781C106.244 94.0781 99.2759 99.2181 88.1039 109.995C86.7507 111.298 85.7029 112.572 84.9222 113.791C84.5186 114.411 84.1903 115.019 83.9232 115.607C81.0256 122.05 85.8534 126.514 92.7665 125.311Z" fill="#575B5A"/>
<g opacity="0.35">
<path d="M84.9258 113.791C86.7409 113.209 89.8739 111.858 94.2723 108.706C99.3732 105.051 104.143 98.2793 106.606 94.4422L106.248 94.0781C106.248 94.0781 99.2794 99.2181 88.1075 109.995C86.7542 111.298 85.7064 112.572 84.9258 113.791Z" fill="white"/>
</g>
<g opacity="0.3">
<path d="M92.7661 125.311C93.0133 125.269 93.2604 125.223 93.5113 125.175C103.678 123.251 114.29 118.066 120.65 109.453C120.741 109.329 120.835 109.199 120.923 109.072C117.425 111.431 100.584 122.325 91.0351 120.152C85.8818 118.979 84.2393 117.159 83.9235 115.606C81.0252 122.049 85.853 126.514 92.7661 125.311Z" fill="#000072"/>
</g>
<path d="M121.323 109.24C121.221 109.696 121.052 110.111 120.863 110.515C120.68 110.924 120.472 111.32 120.251 111.707C120.013 112.08 119.756 112.438 119.489 112.791C119.226 113.146 118.943 113.485 118.642 113.806C118.35 114.136 118.038 114.447 117.736 114.769C117.429 115.085 117.088 115.366 116.763 115.662C116.111 116.256 115.399 116.773 114.701 117.304C111.886 119.399 108.871 121.191 105.697 122.637C102.526 124.084 99.204 125.172 95.8187 125.973C94.9672 126.155 94.1297 126.341 93.2627 126.5C92.3825 126.653 91.438 126.778 90.4987 126.762C88.6253 126.744 86.6522 126.332 84.9625 125.197C84.125 124.634 83.3783 123.884 82.8352 122.996C82.2892 122.109 81.9587 121.093 81.8524 120.082C81.7432 119.068 81.8458 118.066 82.0752 117.129C82.3069 116.191 82.6515 115.304 83.0743 114.475C83.9295 112.824 85.0444 111.382 86.2589 110.078C86.5644 109.754 86.8824 109.444 87.1938 109.127L88.1183 108.241L89.9726 106.48C92.4548 104.142 94.979 101.845 97.5519 99.6007L99.4918 97.9272C100.143 97.3753 100.76 96.7798 101.402 96.2146C102.046 95.6501 102.729 95.1314 103.47 94.6855C104.22 94.2485 105.021 93.8801 105.996 93.7393C106.257 93.7017 106.499 93.8823 106.536 94.1424C106.549 94.2331 106.536 94.3215 106.502 94.3996L106.496 94.4143C106.112 95.2913 105.581 95.9759 105.001 96.5956C104.417 97.2117 103.783 97.7651 103.119 98.2839C102.453 98.8004 101.771 99.2993 101.128 99.8461L99.2092 101.498C96.6643 103.719 94.1637 105.993 91.7022 108.312L89.8634 110.058L88.9492 110.934C88.6666 111.223 88.3751 111.506 88.0992 111.799C87.002 112.975 86.028 114.251 85.3211 115.618C84.6342 116.98 84.2114 118.453 84.3604 119.812C84.4977 121.167 85.2296 122.345 86.3755 123.109C87.5177 123.883 89.0075 124.231 90.5135 124.242C91.2764 124.256 92.0231 124.156 92.8149 124.02C93.6199 123.873 94.4411 123.691 95.2505 123.519C98.475 122.755 101.642 121.718 104.652 120.343C105.398 119.987 106.156 119.652 106.879 119.253C107.244 119.06 107.613 118.873 107.974 118.674L109.043 118.05L109.577 117.738L110.096 117.403L111.132 116.73C111.799 116.25 112.472 115.774 113.102 115.247C113.728 114.716 114.362 114.196 114.954 113.632C115.256 113.356 115.571 113.095 115.866 112.814C116.166 112.537 116.455 112.248 116.764 111.979C116.915 111.841 117.075 111.711 117.219 111.566C117.361 111.42 117.509 111.278 117.658 111.137C117.956 110.856 118.266 110.583 118.591 110.319C119.195 109.758 119.877 109.247 120.632 108.758C120.843 108.621 121.123 108.681 121.26 108.891C121.328 108.997 121.347 109.12 121.322 109.234L121.323 109.24Z" fill="#000072"/>
<path d="M91.1047 62.3325C91.1047 62.3325 90.6649 65.1416 89.4305 67.6066C88.4639 69.5306 87.0103 71.244 84.8993 71.244C82.5056 71.244 80.8882 69.5336 79.8117 67.485C78.212 64.4415 77.8047 60.6582 77.8047 60.6582L91.1047 62.3325Z" fill="#000072"/>
<path d="M89.4313 67.6068C88.4647 69.5309 87.0111 71.2442 84.9001 71.2442C82.5064 71.2442 80.889 69.5339 79.8125 67.4852C81.0639 66.6746 82.7204 66.1816 84.5341 66.1816C86.437 66.1816 88.1651 66.7255 89.4313 67.6068Z" fill="#FF6982"/>
<path d="M84.8975 72.5042C77.8915 72.5042 76.6024 61.2714 76.5508 60.7932L79.058 60.5234V60.5242C79.0743 60.6679 80.2342 69.9861 84.8975 69.9861C87.9331 69.9861 89.535 64.1748 89.8574 62.1395L92.3484 62.5293C92.285 62.9361 90.7207 72.5042 84.8975 72.5042Z" fill="#000072"/>
<path d="M103.477 155.214C101.761 147.391 101.69 138.557 106.013 135.089C109.725 132.111 113.825 133.189 116.309 137.476C117.916 140.25 123.515 135.047 125.068 142.431C125.939 146.575 122.237 151.984 119.4 155.548C112.598 164.088 105.192 163.037 103.477 155.214Z" fill="#FEB71F"/>
<g opacity="0.35">
<path d="M123.733 148.99C122.558 151.384 120.863 153.71 119.399 155.55C112.6 164.088 105.192 163.039 103.478 155.215C102.219 149.477 101.845 143.2 103.439 138.889C103.061 142.018 103.754 145.809 104.974 149.371C107.199 155.855 115.323 157.051 122.353 150.362C122.799 149.935 123.268 149.477 123.733 148.99Z" fill="#000072"/>
</g>
<path d="M109.919 162.791C109.357 162.791 108.804 162.729 108.262 162.603C105.277 161.911 103.084 159.316 102.243 155.484C101.412 151.696 99.1722 138.962 105.22 134.108C107.227 132.499 109.422 131.86 111.57 132.261C113.863 132.689 115.933 134.318 117.397 136.847C117.58 137.161 118.045 137.175 119.352 137.055C121.507 136.856 125.112 136.527 126.3 142.174C127.053 145.758 125.118 150.389 120.384 156.334C117.054 160.515 113.326 162.791 109.919 162.791ZM110.333 134.665C109.164 134.665 107.958 135.143 106.8 136.072C102.892 139.207 103.156 147.878 104.706 154.945C105.339 157.832 106.805 159.681 108.832 160.151C111.627 160.797 115.208 158.786 118.41 154.766C122.589 149.519 124.412 145.457 123.831 142.691C123.105 139.24 121.704 139.368 119.582 139.563C118.168 139.692 116.235 139.87 115.214 138.108C114.124 136.225 112.664 135.027 111.106 134.737C110.851 134.689 110.593 134.665 110.333 134.665Z" fill="#000072"/>
<path d="M56.6792 159.117C59.8254 151.153 61.4081 141.842 57.4384 137.446C54.0287 133.67 49.5174 134.11 46.1646 138.212C43.9945 140.866 38.9741 134.421 36.0743 141.95C34.4466 146.177 37.4305 152.515 39.8175 156.759C45.5374 166.929 53.5322 167.081 56.6792 159.117Z" fill="#FEB71F"/>
<g opacity="0.35">
<path d="M56.679 159.116C53.5298 167.08 45.5366 166.926 39.8174 156.757C38.152 153.797 36.193 149.814 35.7148 146.24C36.4955 147.822 37.4488 149.343 38.3239 150.629C44.0431 159.051 52.0401 159.175 55.1856 152.582C57.5379 147.65 59.0181 142.097 57.9541 138.088C61.256 142.702 59.6785 151.52 56.679 159.116Z" fill="#000072"/>
</g>
<path d="M49.8419 166.029C45.856 166.029 41.8287 162.907 38.7164 157.374C34.7482 150.318 33.4982 145.124 34.8957 141.497C37.0857 135.81 40.7868 136.763 42.999 137.331C44.3979 137.69 44.91 137.752 45.186 137.415C47.1472 135.015 49.5866 133.66 52.054 133.6C54.3717 133.545 56.5484 134.581 58.3731 136.602C63.8945 142.717 59.3685 155.734 57.85 159.579C56.3211 163.448 53.5903 165.793 50.3569 166.013C50.1858 166.023 50.0138 166.029 49.8419 166.029ZM40.2991 139.396C39.1126 139.396 38.1593 140.04 37.2503 142.401C36.1545 145.245 37.3882 149.868 40.916 156.14C43.6261 160.959 47.0934 163.713 50.1865 163.498C52.4421 163.345 54.3311 161.625 55.505 158.653C58.3576 151.433 60.1167 142.292 56.5011 138.287C55.184 136.829 53.6633 136.09 52.1167 136.116C50.396 136.159 48.6289 137.185 47.1399 139.006C45.7969 140.65 43.8969 140.161 42.371 139.769C41.5992 139.571 40.9174 139.396 40.2991 139.396Z" fill="#000072"/>
<path d="M94.7087 59.9296C94.7117 59.982 94.7117 60.0336 94.7058 60.0822C94.6209 60.7159 87.4149 61.6518 83.9632 62.0254C80.8561 62.3637 77.2486 60.5177 76.5587 60.1478C76.4805 60.1058 76.4414 60.0829 76.4414 60.0829C76.4414 60.0829 78.956 55.2805 83.8259 54.699C88.5534 54.1331 94.5788 58.1198 94.7087 59.9296Z" fill="#F8B916"/>
<g opacity="0.35">
<path d="M94.7086 59.9295C94.7115 59.9818 94.7115 60.0334 94.7056 60.082C94.6208 60.7158 87.4148 61.6517 83.9631 62.0253C80.8559 62.3635 77.2485 60.5175 76.5586 60.1476C78.3509 59.8263 82.6261 59.1631 87.161 59.2766C90.4666 59.3576 93.0565 59.6694 94.7086 59.9295Z" fill="black"/>
</g>
<path d="M84.9369 63.696C84.6078 63.696 84.2758 63.6923 83.9408 63.6849C80.0973 63.6009 77.3177 62.2848 76.2714 61.7896L76.0663 61.6931C75.721 61.5354 75.4509 61.2391 75.3233 60.8795C75.1949 60.5177 75.22 60.1131 75.3912 59.7697C75.4185 59.7144 75.4524 59.6422 75.4923 59.5553C77.3539 55.559 80.1253 53.3851 83.7283 53.0925C89.9632 52.587 94.9136 56.3644 95.9281 60.1551C96.0462 60.5965 95.9414 61.0696 95.6404 61.4521C94.5926 62.7866 90.1743 63.696 84.9369 63.696ZM78.1427 59.8736C79.3469 60.3902 81.4003 61.1102 83.9954 61.1669C88.869 61.2745 91.9975 60.5501 93.2158 60.0763C92.1045 57.7719 88.6417 55.22 83.9319 55.6039C80.6219 55.8729 78.927 58.3777 78.1427 59.8736Z" fill="#000072"/>
<path d="M76.6724 135.057C92.1948 87.8322 123.504 48.2238 164.98 21.4127C166.119 20.6765 166.056 18.9927 164.861 18.3501L164.825 18.3309C164.259 18.0266 163.571 18.0479 163.027 18.3906C120.318 45.2946 86.4491 84.8897 71.5169 133.429C71.0742 134.868 71.9124 136.39 73.3645 136.79C73.38 136.794 73.3955 136.799 73.411 136.802C74.7915 137.184 76.2259 136.415 76.6724 135.057Z" fill="#F0835C"/>
<path d="M164.979 21.4127C131.27 43.204 104.275 73.4506 87.011 109.37C86.2326 110.998 85.4696 112.635 84.7259 114.284C84.3695 115.078 84.0168 115.878 83.6729 116.677C82.0747 120.351 80.5776 124.078 79.1875 127.859C78.9388 128.533 78.6961 129.206 78.4533 129.883C78.015 131.089 77.5959 132.298 77.1893 133.513C77.013 134.026 76.8396 134.54 76.6721 135.056C76.2242 136.415 74.7935 137.187 73.4129 136.806C73.3975 136.799 73.3812 136.796 73.3657 136.791C72.4862 136.551 71.8339 135.897 71.5535 135.1C71.3705 134.581 71.3388 133.998 71.5159 133.432C71.8472 132.355 72.1844 131.288 72.5341 130.227C72.8116 129.383 73.0949 128.539 73.382 127.702C75.0554 122.829 76.9215 118.047 78.9705 113.366C79.1218 113.016 79.276 112.667 79.431 112.317C79.9917 111.052 80.5688 109.792 81.1613 108.542C98.7032 71.2848 127.87 40.5379 163.022 18.3907C163.57 18.0509 164.258 18.0288 164.822 18.331L164.859 18.3501C166.053 18.9949 166.117 20.6729 164.979 21.4127Z" fill="#F0835C"/>
<g opacity="0.35">
<path d="M165.625 19.1519C165.36 19.1799 165.102 19.2683 164.865 19.4135C129.713 41.5599 100.546 72.3077 83.0044 109.565C82.4119 110.815 81.8349 112.074 81.2741 113.34C81.1199 113.689 80.965 114.038 80.8137 114.388C78.7647 119.069 76.8986 123.852 75.2251 128.725C74.9381 129.562 74.6548 130.406 74.3773 131.25C74.0276 132.311 73.6904 133.378 73.3591 134.454C73.1827 135.021 73.2145 135.603 73.3967 136.123C73.4912 136.397 73.6299 136.655 73.8099 136.882C73.6778 136.869 73.545 136.844 73.4129 136.806C73.3975 136.799 73.3812 136.796 73.3657 136.791C72.4862 136.551 71.8339 135.897 71.5535 135.1C71.3705 134.58 71.3388 133.998 71.5159 133.432C71.8472 132.355 72.1844 131.288 72.5341 130.227C72.8116 129.383 73.0949 128.539 73.382 127.702C75.0554 122.829 76.9215 118.047 78.9705 113.366C79.1218 113.016 79.276 112.667 79.431 112.317C79.9917 111.052 80.5687 109.792 81.1613 108.542C98.7032 71.2848 127.87 40.5378 163.022 18.3907C163.57 18.0509 164.258 18.0288 164.822 18.331L164.859 18.3501C165.216 18.5439 165.474 18.8276 165.625 19.1519Z" fill="white"/>
</g>
<path d="M74.1309 138.161C73.7819 138.161 73.4277 138.114 73.075 138.017L73.0263 138.004C71.9955 137.72 71.141 137.045 70.6245 136.104C70.1088 135.164 69.9974 134.083 70.3124 133.06C77.6121 109.331 89.5773 87.1072 105.876 67.0049C121.382 47.8806 140.384 31.1659 162.354 17.3267C163.281 16.743 164.457 16.7032 165.423 17.2235L165.456 17.2412C166.415 17.7577 167.011 18.7113 167.055 19.7938C167.098 20.8793 166.579 21.88 165.664 22.471C124.182 49.2858 93.0032 89.4093 77.8696 135.45C77.3266 137.104 75.7933 138.161 74.1309 138.161ZM163.975 19.3775C163.879 19.3775 163.784 19.404 163.699 19.4563C119.065 47.5725 86.7557 88.1809 72.7223 133.8C72.6094 134.167 72.6492 134.555 72.8352 134.892C73.0211 135.231 73.3281 135.474 73.7007 135.576L73.7479 135.589C74.4784 135.79 75.2377 135.385 75.4745 134.665C83.197 111.169 94.8464 89.3474 110.1 69.8059C125.17 50.4981 143.404 33.8608 164.295 20.3561C164.515 20.2139 164.541 20.0053 164.535 19.8941C164.531 19.7843 164.49 19.5816 164.263 19.4593L164.231 19.4423C164.15 19.3989 164.062 19.3775 163.975 19.3775Z" fill="#000072"/>
<path d="M165.317 116.823L162.796 116.82C162.807 107.022 164.652 95.9767 168.13 84.8795C178.872 50.6101 173.916 29.4187 164.766 24.2301C164.716 24.2021 164.665 24.1984 164.613 24.2198C164.56 24.2419 164.526 24.2809 164.51 24.3377C163.277 28.8159 158.175 42.8069 142.795 42.8077C141.983 42.8077 141.144 42.7686 140.275 42.6875C140.208 42.6802 140.162 42.7082 140.135 42.7325C140.1 42.7642 140.081 42.8032 140.081 42.8497C139.997 47.1871 138.137 61.6255 117.752 65.3189C117.658 65.3358 117.592 65.414 117.599 65.5009C117.981 70.1818 117.706 85.8456 98.1169 90.878L97.4883 88.4388C115.168 83.8965 115.427 69.89 115.086 65.7058C114.973 64.3218 115.925 63.0897 117.301 62.8407C135.297 59.5805 137.464 47.7406 137.559 42.801C137.574 42.059 137.9 41.3493 138.456 40.8541C139.015 40.3552 139.764 40.1113 140.51 40.1798C155.49 41.5829 160.584 29.1003 162.079 23.6693C162.302 22.8609 162.873 22.2131 163.647 21.8926C164.421 21.572 165.282 21.6258 166.011 22.0392C171.794 25.3178 175.506 33.1497 176.462 44.0906C177.473 55.6712 175.424 70.0359 170.536 85.6312C167.132 96.4903 165.328 107.276 165.317 116.823Z" fill="#000072"/>
<path d="M97.0157 114.557C101.132 114.557 104.469 111.224 104.469 107.113C104.469 103.003 101.132 99.6699 97.0157 99.6699C92.8994 99.6699 89.5625 103.003 89.5625 107.113C89.5625 111.224 92.8994 114.557 97.0157 114.557Z" fill="white"/>
<g opacity="0.3">
<path d="M104.468 107.111C104.468 111.225 101.134 114.555 97.0149 114.555C93.3248 114.555 90.2619 111.88 89.668 108.36C91.0131 109.692 92.8592 110.511 94.9038 110.511C99.0226 110.511 102.357 107.178 102.357 103.064C102.357 102.64 102.32 102.223 102.254 101.82C103.622 103.17 104.468 105.044 104.468 107.111Z" fill="#000072"/>
</g>
<path d="M97.0189 115.816C92.2139 115.816 88.3047 111.912 88.3047 107.113C88.3047 102.314 92.2139 98.4102 97.0189 98.4102C101.824 98.4102 105.733 102.314 105.733 107.113C105.733 111.912 101.823 115.816 97.0189 115.816ZM97.0189 100.929C93.6048 100.929 90.8267 103.703 90.8267 107.113C90.8267 110.523 93.6048 113.297 97.0189 113.297C100.433 113.297 103.211 110.523 103.211 107.113C103.211 103.703 100.433 100.929 97.0189 100.929Z" fill="#000072"/>
<path d="M97.0173 109.222C98.1832 109.222 99.1283 108.279 99.1283 107.114C99.1283 105.95 98.1832 105.006 97.0173 105.006C95.8514 105.006 94.9062 105.95 94.9062 107.114C94.9062 108.279 95.8514 109.222 97.0173 109.222Z" fill="#000072"/>
<g opacity="0.35">
<path d="M83.6745 116.677C82.0763 120.351 80.5792 124.078 79.1891 127.859C78.3191 128.001 77.3798 128.048 76.3867 127.985C76.1343 127.97 75.8856 127.951 75.6303 127.929C74.8866 127.869 74.1362 127.797 73.3828 127.702C75.0563 122.828 76.9223 118.047 78.9714 113.365C79.1227 113.016 79.2769 112.666 79.4318 112.316C80.8817 113.44 82.0357 114.571 82.9308 115.678C83.2016 116.013 83.451 116.347 83.6745 116.677Z" fill="black"/>
</g>
<path d="M70.4926 124.397C70.2425 124.381 69.9916 124.364 69.7371 124.342C59.4217 123.534 48.308 119.531 41.0482 111.659C40.9441 111.546 40.8364 111.426 40.7353 111.31C40.7132 111.286 40.6911 111.266 40.6719 111.242L53.3786 95.2114L53.6944 94.8105C53.6944 94.8105 61.1808 99.1635 73.4596 108.665C74.9464 109.813 76.127 110.965 77.0353 112.092C77.5038 112.665 77.8964 113.233 78.2255 113.789C81.8085 119.88 77.4957 124.842 70.4926 124.397Z" fill="#575B5A"/>
<g opacity="0.35">
<path d="M77.0356 112.094C75.168 111.713 71.9059 110.709 67.191 108.053C61.7227 104.974 56.2448 98.7601 53.3789 95.2134L53.6947 94.8125C53.6947 94.8125 61.1811 99.1654 73.4599 108.666C74.9467 109.815 76.1265 110.967 77.0356 112.094Z" fill="white"/>
</g>
<g opacity="0.35">
<path d="M70.4917 124.397C70.2416 124.382 69.9907 124.364 69.7361 124.343C59.4208 123.534 48.3071 119.532 41.0472 111.659C40.9432 111.546 40.8355 111.427 40.7344 111.311C44.468 113.276 62.3959 122.277 71.6509 119.081C76.6462 117.355 78.0814 115.368 78.226 113.79C81.8076 119.88 77.4948 124.842 70.4917 124.397Z" fill="black"/>
</g>
<path d="M40.9894 110.967C41.7936 111.372 42.5263 111.807 43.1889 112.298C43.5402 112.525 43.8781 112.763 44.205 113.01C44.3688 113.134 44.5304 113.258 44.6883 113.389C44.8469 113.518 45.0203 113.63 45.1849 113.751C45.5213 113.984 45.8401 114.239 46.1684 114.482C46.4924 114.731 46.8355 114.956 47.1653 115.197C47.8153 115.693 48.5016 116.142 49.1826 116.601C49.8659 117.057 50.5868 117.457 51.3017 117.862L52.4056 118.418L52.9583 118.695L53.5235 118.947L54.6539 119.451C55.0346 119.61 55.422 119.756 55.8057 119.909C56.5686 120.227 57.3581 120.477 58.1381 120.751C61.2806 121.79 64.5412 122.477 67.8299 122.887C68.6534 122.97 69.4901 123.062 70.3054 123.121C71.1075 123.17 71.8609 123.188 72.6179 123.092C74.1143 122.917 75.5568 122.41 76.6083 121.516C77.6642 120.632 78.264 119.382 78.253 118.02C78.253 116.653 77.6723 115.233 76.8414 113.954C75.9899 112.673 74.8831 111.51 73.6642 110.46C73.3572 110.198 73.037 109.949 72.7249 109.693L71.7207 108.921L69.7026 107.385C67.0035 105.347 64.2697 103.357 61.4983 101.426L59.4109 99.9918C58.7129 99.518 57.9802 99.0957 57.2615 98.6551C56.5443 98.2114 55.8544 97.7302 55.2073 97.1812C54.5638 96.6278 53.961 96.0051 53.4844 95.1746L53.477 95.1621C53.3456 94.9336 53.4246 94.6426 53.6533 94.5121C53.733 94.4665 53.8216 94.4466 53.9071 94.4495C54.8922 94.4841 55.7289 94.7634 56.5214 95.1164C57.3065 95.479 58.0429 95.9204 58.7438 96.4119C59.4441 96.9049 60.1214 97.4288 60.8298 97.9071L62.9401 99.3603C65.7417 101.312 68.5006 103.321 71.2226 105.376L73.2576 106.925L74.2729 107.706C74.6175 107.987 74.9665 108.261 75.3059 108.55C76.6555 109.715 77.9202 111.026 78.9502 112.575C79.4601 113.352 79.8991 114.197 80.2319 115.104C80.5617 116.012 80.7728 116.996 80.7742 118.015C80.7787 119.032 80.561 120.078 80.1139 121.018C79.6711 121.961 79.01 122.787 78.2389 123.437C76.6828 124.749 74.7666 125.373 72.9057 125.594C71.9745 125.712 71.0212 125.69 70.1298 125.633C69.2518 125.57 68.3988 125.477 67.5318 125.388C64.0793 124.958 60.6593 124.238 57.3493 123.143C54.0377 122.051 50.845 120.597 47.819 118.819C47.0664 118.367 46.302 117.931 45.5899 117.411C45.2343 117.152 44.8654 116.911 44.5252 116.629C44.1902 116.342 43.8456 116.067 43.5195 115.77C43.186 115.482 42.8672 115.177 42.5669 114.852C42.2637 114.531 41.9685 114.202 41.6918 113.858C41.4299 113.497 41.1797 113.127 40.9532 112.74C40.7215 112.359 40.5083 111.964 40.3578 111.522L40.3563 111.519C40.2758 111.282 40.402 111.025 40.6389 110.944C40.7584 110.903 40.8846 110.915 40.9894 110.967Z" fill="#000072"/>
<path d="M154.642 158.34C153 156.112 155.264 152.748 157.842 150.118C158.779 149.161 159.807 148.421 160.805 147.939C157.138 142.32 152.886 137.824 152.277 125.569C151.853 117.043 155.381 107.87 159.425 104.472C159.862 104.103 160.528 104.22 160.804 104.722L163.693 109.967C164.029 110.574 164.898 110.592 165.256 109.999L170.129 104.846C170.563 104.43 171.207 104.299 171.596 104.719C175.388 108.803 177.321 117.839 176.398 126.06C175.396 134.985 170.608 143.289 166.514 148.014C167.517 148.539 168.543 149.334 169.463 150.354C171.931 153.088 174.351 158.1 172.13 159.836C169.513 161.882 166.504 157.978 164.034 155.246L164.028 155.239C163.776 154.957 163.338 154.947 163.074 155.217L163.065 155.226C160.487 157.855 156.233 160.499 154.642 158.34Z" fill="#1AC4FF"/>
<g opacity="0.3">
<path d="M172.126 159.834C171.413 160.393 170.669 160.508 169.916 160.324C171.85 158.47 169.494 153.646 167.087 150.984C166.166 149.963 165.142 149.167 164.137 148.643C168.233 143.918 173.021 135.613 174.022 126.688C174.927 118.621 173.083 109.768 169.429 105.581L170.127 104.844C170.561 104.427 171.205 104.297 171.595 104.716C175.385 108.8 177.32 117.836 176.396 126.058C175.394 134.983 170.606 143.288 166.512 148.011C167.515 148.537 168.541 149.331 169.463 150.352C171.929 153.086 174.349 158.099 172.126 159.834Z" fill="white"/>
</g>
<g opacity="0.3">
<path d="M158.839 158.411C157.121 159.275 155.497 159.499 154.645 158.34C153.001 156.111 155.266 152.749 157.843 150.118C158.779 149.16 159.809 148.422 160.806 147.939C157.139 142.32 152.886 137.825 152.277 125.567C151.853 117.042 155.382 107.869 159.426 104.471C159.864 104.103 160.529 104.221 160.804 104.723L161.459 105.912C158.186 110.133 155.656 117.898 156.019 125.194C156.563 136.14 160.07 141.637 163.426 146.691C164.004 147.561 163.596 148.718 162.617 149.081C162.26 149.213 161.912 149.407 161.583 149.743C159.005 152.373 156.741 155.736 158.384 157.964C158.516 158.146 158.671 158.293 158.839 158.411Z" fill="#000072"/>
</g>
<path d="M170.578 161.692C168.071 161.692 165.667 158.982 163.792 156.869C163.698 156.763 163.605 156.658 163.512 156.553C161.448 158.521 158.436 160.552 156.044 160.384C155.035 160.313 154.199 159.864 153.626 159.087C152.385 157.403 151.952 154.327 156.94 149.237C157.585 148.579 158.285 147.998 159.01 147.518C158.771 147.165 158.532 146.816 158.298 146.473C154.987 141.635 151.563 136.632 151.016 125.631C150.595 117.158 153.932 107.441 158.613 103.509C159.108 103.088 159.764 102.914 160.407 103.032C161.048 103.15 161.594 103.545 161.909 104.116L164.55 108.911L169.254 103.939C169.76 103.453 170.415 103.192 171.06 103.203C171.622 103.219 172.141 103.453 172.52 103.863C176.532 108.184 178.642 117.371 177.65 126.2C176.69 134.749 172.405 142.694 168.403 147.709C169.107 148.219 169.782 148.827 170.399 149.51C172.485 151.821 174.477 155.55 174.247 158.206C174.151 159.311 173.687 160.216 172.907 160.826C172.129 161.435 171.348 161.692 170.578 161.692ZM163.54 153.762C163.555 153.762 163.569 153.762 163.584 153.762C164.112 153.774 164.617 154.007 164.969 154.401C165.202 154.659 165.439 154.927 165.681 155.199C168.079 157.902 170.019 159.886 171.353 158.844C171.494 158.734 171.688 158.524 171.734 157.989C171.876 156.36 170.437 153.312 168.527 151.196C167.734 150.319 166.835 149.603 165.928 149.128L164.519 148.39L165.56 147.189C169.557 142.577 174.173 134.568 175.145 125.92C176.025 118.082 174.252 109.74 170.916 105.848L166.247 110.784C165.833 111.369 165.178 111.714 164.442 111.691C163.66 111.676 162.967 111.259 162.589 110.574L159.916 105.721C156.457 108.965 153.136 117.465 153.536 125.505C154.047 135.796 157.124 140.292 160.381 145.051C160.869 145.763 161.373 146.499 161.862 147.249L162.644 148.446L161.356 149.07C160.455 149.506 159.551 150.173 158.744 150.997C155.905 153.894 154.751 156.36 155.659 157.592C155.755 157.723 155.89 157.847 156.223 157.87C157.552 157.961 160.102 156.447 162.165 154.344C162.53 153.97 163.027 153.762 163.54 153.762ZM163.097 156.09C163.099 156.091 163.1 156.092 163.102 156.095C163.1 156.092 163.099 156.092 163.097 156.09ZM160.24 105.432C160.239 105.433 160.239 105.433 160.238 105.433C160.238 105.433 160.239 105.433 160.24 105.432Z" fill="#000072"/>
<path d="M167.518 124.264C162.92 124.264 157.314 123.237 152.297 119.446C152.02 119.236 151.964 118.842 152.175 118.564C152.384 118.287 152.78 118.232 153.058 118.442C163.319 126.194 176.269 121.743 176.396 121.695L176.614 122.284L176.621 122.284L176.943 122.825C176.883 122.861 172.889 124.264 167.518 124.264Z" fill="#000072"/>
<path d="M169.95 120.357C171.906 120.357 173.491 118.774 173.491 116.821C173.491 114.868 171.906 113.285 169.95 113.285C167.995 113.285 166.41 114.868 166.41 116.821C166.41 118.774 167.995 120.357 169.95 120.357Z" fill="white"/>
<path d="M169.953 118.604C170.939 118.604 171.738 117.806 171.738 116.822C171.738 115.837 170.939 115.039 169.953 115.039C168.967 115.039 168.168 115.837 168.168 116.822C168.168 117.806 168.967 118.604 169.953 118.604Z" fill="#000072"/>
<path d="M164.2 131.246C163.89 131.246 163.564 131.209 163.221 131.135C161.775 130.822 160.763 130.116 160.213 129.037C159.449 127.534 159.641 125.394 160.769 122.848L160.806 122.765L161.37 122.994L161.961 122.697C162.097 122.966 162 123.184 161.922 123.358C160.967 125.515 160.759 127.33 161.338 128.467C161.712 129.202 162.416 129.672 163.488 129.904C164.34 130.089 164.987 129.962 165.469 129.52C166.797 128.297 166.675 124.931 166.516 123.737C166.471 123.392 166.713 123.076 167.058 123.03C167.402 122.987 167.72 123.226 167.766 123.57C167.794 123.771 168.405 128.528 166.325 130.444C165.746 130.978 165.034 131.246 164.2 131.246Z" fill="#000072"/>
<path d="M162.11 127.452C162.114 127.419 162.121 127.38 162.127 127.351L162.141 127.285L162.168 127.155L162.223 126.897L162.336 126.384L162.565 125.36L163.028 123.312C163.106 122.971 163.445 122.757 163.787 122.834C164.128 122.912 164.343 123.251 164.266 123.592C164.255 123.639 164.24 123.683 164.22 123.724L164.217 123.73L162.415 127.471L162.385 127.532C162.351 127.604 162.263 127.635 162.191 127.6C162.135 127.572 162.104 127.511 162.11 127.452Z" fill="#000072"/>
<path d="M157.202 155.722C157.344 155.272 157.541 154.843 157.761 154.43C157.987 154.02 158.232 153.622 158.504 153.243C158.771 152.86 159.063 152.497 159.374 152.151C159.692 151.809 160.021 151.481 160.406 151.2C160.458 151.162 160.53 151.173 160.567 151.225C160.595 151.263 160.596 151.313 160.574 151.351C160.114 152.159 159.576 152.891 159.042 153.626L158.254 154.733L157.479 155.854L157.477 155.857C157.429 155.927 157.333 155.944 157.262 155.896C157.205 155.856 157.183 155.785 157.202 155.722Z" fill="#000072"/>
<path d="M159.473 155.094C159.643 154.683 159.843 154.288 160.05 153.897C160.26 153.508 160.478 153.124 160.71 152.748C160.936 152.368 161.18 152 161.436 151.639C161.699 151.282 161.967 150.93 162.285 150.609C162.33 150.563 162.403 150.563 162.448 150.608C162.48 150.64 162.49 150.686 162.476 150.727L162.475 150.73C162.33 151.159 162.136 151.557 161.936 151.95C161.729 152.34 161.51 152.721 161.274 153.093C161.044 153.468 160.799 153.833 160.546 154.194C160.291 154.555 160.029 154.91 159.737 155.249L159.732 155.254C159.676 155.319 159.579 155.326 159.514 155.27C159.463 155.225 159.448 155.154 159.473 155.094Z" fill="#000072"/>
<path d="M165.12 150.839L165.832 152.001L166.558 153.15C167.051 153.913 167.546 154.673 167.962 155.506C167.991 155.563 167.968 155.632 167.912 155.661C167.87 155.682 167.82 155.675 167.786 155.648C167.417 155.346 167.107 155 166.808 154.642C166.516 154.279 166.245 153.9 166 153.503C165.75 153.11 165.526 152.698 165.324 152.277C165.127 151.852 164.954 151.413 164.837 150.956C164.816 150.874 164.866 150.79 164.948 150.768C165.016 150.751 165.084 150.781 165.119 150.838L165.12 150.839Z" fill="#000072"/>
<path d="M167.343 151.568C167.616 151.922 167.858 152.292 168.094 152.666C168.326 153.041 168.551 153.419 168.76 153.806C168.976 154.189 169.173 154.582 169.358 154.983C169.536 155.387 169.708 155.795 169.829 156.231L169.829 156.234C169.846 156.295 169.81 156.359 169.749 156.376C169.705 156.389 169.66 156.373 169.632 156.342C169.333 156.004 169.083 155.637 168.841 155.267C168.606 154.892 168.382 154.511 168.178 154.119C167.966 153.732 167.771 153.336 167.583 152.936C167.397 152.535 167.219 152.13 167.071 151.71C167.043 151.629 167.085 151.541 167.166 151.513C167.231 151.49 167.301 151.513 167.34 151.564L167.343 151.568Z" fill="#000072"/>
<path d="M164.928 127.459L164.546 123.666C164.511 123.317 164.765 123.005 165.114 122.97C165.463 122.935 165.776 123.188 165.811 123.538C165.816 123.591 165.815 123.647 165.807 123.697L165.235 127.478C165.222 127.562 165.144 127.619 165.06 127.607C164.989 127.596 164.937 127.538 164.93 127.47L164.928 127.459Z" fill="#000072"/>
</g>
<defs>
<clipPath id="clip0_661_2904">
<rect width="190" height="172" fill="white"/>
</clipPath>
</defs>
</svg>
