<svg width="284" height="162" viewBox="0 0 284 162" fill="none" xmlns="http://www.w3.org/2000/svg" style="transform: scaleX(-1);">
<path d="M278.224 142.444C273.854 143.555 265.502 138.222 259.669 135.611C253.835 133 248.446 132.666 248.446 132.666L235.599 143.305C235.599 143.305 226.733 151.333 198.002 156.424C169.271 161.516 144.669 158.222 86.8583 152.222C29.048 146.222 5.91765 129.12 3.52055 124C1.12333 118.879 6.29838 115.666 6.29838 115.666C10.8521 113.346 14.0761 105.703 26.8538 92.0437C39.6316 78.3843 62.2242 74.8885 62.2242 74.8885C62.2242 74.8885 65.8538 61.9254 72.5206 45.407C79.1872 28.8885 94.3724 17.481 100.521 11.2588C106.669 5.03667 113.113 1.92534 116.002 2.36992C118.891 2.8145 116.669 12.7403 116.076 17.6324C115.483 22.5242 114.15 41.1846 115.78 51.7774C117.409 62.3699 131.409 76.0735 131.409 76.0735C131.409 76.0735 140.15 57.2588 154.891 42.4439C169.632 27.6292 183.78 25.8513 189.928 25.7032C196.076 25.5552 195.335 29.0367 195.335 29.0367C195.335 29.0367 185.261 50.3699 180.817 68.1477C176.372 85.9253 181.41 103.407 181.41 103.407C181.41 103.407 202.595 110.222 226.158 104.148C249.722 98.0735 250.521 74.4439 251.113 66.2959C251.706 58.1477 247.78 51.407 242.521 41.6292C237.261 31.8514 229.928 25.5552 229.928 25.5552C229.928 25.5552 224.15 16.3699 241.039 31.0367C257.928 45.7032 264.743 60.5181 267.706 74.7403C270.669 88.9624 262.521 108.518 262.521 108.518C262.521 108.518 264.965 110.222 270.891 115.666C276.817 121.111 280.372 132.592 280.891 135.703C281.409 138.814 282.595 141.333 278.224 142.444Z" fill="#CBD5E1"/>
<path d="M234.613 114.74C234.391 117.148 231.798 120.222 227.835 121.073C223.872 121.925 221.819 118.333 221.819 118.333C221.246 116.888 221.502 115.148 222.539 113.666C223.576 112.184 226.65 110.518 230.132 110.407C233.613 110.296 234.835 112.333 234.613 114.74ZM208.687 120.555C208.687 120.555 207.28 114.666 202.724 114.333C198.169 113.999 197.465 115.036 198.428 117.851C199.391 120.666 202.576 123.481 205.65 123.925C208.724 124.37 209.189 122.019 208.687 120.555ZM222.882 134.675C220.215 136.342 217.187 133.953 215.771 132.009C214.354 130.064 214.298 127.342 217.493 126.064C220.687 124.786 223.548 128.564 223.548 128.564C225.382 130.509 225.548 133.009 222.882 134.675ZM114.706 88.9622C108.743 87.1844 105.076 87.7029 103.965 92.1844C102.854 96.6658 103.076 101.259 106.743 102.999C110.41 104.74 118.002 105.925 118.002 105.925L118.187 105.236C118.187 105.236 120.669 90.7401 114.706 88.9622ZM88.1687 113.888C83.5021 116.036 81.5391 112.11 81.6502 108.925C81.7613 105.74 82.9958 104.755 87.428 105.444C95.0576 106.629 92.8354 111.74 88.1687 113.888ZM75.5947 84.2712C78.4465 85.506 82.891 90.0734 80.891 92.4026C78.891 94.7317 72.4465 91.9993 69.965 89.5919C67.4836 87.1845 68.0021 84.2712 68.0021 84.2712C68.2243 81.9875 72.7428 83.0364 75.5947 84.2712ZM88.465 55.2308C86.5951 51.5217 88.9465 47.0827 90.3169 44.2679C91.6873 41.453 94.0576 40.5271 97.3169 44.5271C100.576 48.5271 98.6132 54.6382 98.6132 54.6382C95.5021 61.7493 90.335 58.9399 88.465 55.2308ZM99.4284 31.145C97.1295 29.6812 95.8529 27.047 97.0951 24.1265C98.3373 21.206 101.058 20.9413 104.206 22.3117C107.354 23.6821 106.873 27.7932 106.873 27.7932C106.08 31.743 101.727 32.6089 99.4284 31.145Z" fill="#94A3B8"/>
<path d="M247.017 131.623C247.35 132.067 246.906 136.067 243.239 138.845C241.456 140.196 236.44 143.201 230.347 145.422C231.154 145.38 231.96 145.329 232.758 145.263C228.264 147.964 217.899 152.897 197.998 156.424C169.267 161.516 144.665 158.221 86.8546 152.221C66.0154 150.059 49.7042 146.451 37.2246 142.484C37.2246 142.484 48.8147 140.119 35.1992 141.831C14.4645 134.948 5.00245 127.173 3.51686 123.999C2.87489 122.628 2.78566 121.399 2.985 120.326L5.04933 119.859C5.04933 119.859 22.9998 135.489 72.3005 135.932C76.106 134.596 79.949 132.928 83.6467 130.845C103.45 119.686 115.869 104.023 120.98 94.0821C122.115 91.8748 123.886 88.5745 126.095 84.6563C124.021 83.7984 122.291 82.6177 121.258 80.9993C119.382 78.0608 117.162 73.6096 115.154 68.326C114.298 70.4746 111.243 68.5423 109.194 66.7493C106.749 64.6104 106.472 62.055 106.777 59.5825C107.083 57.1104 108.527 57.1658 111.388 58.7771C111.706 58.9563 112 59.1995 112.276 59.4778C110.636 53.4522 109.503 46.9229 109.469 40.5376C109.385 24.502 113.813 14.74 114.813 8.68435C115.813 2.62893 113.242 4.5608 113.242 4.5608C114.931 0.770757 117.314 4.26783 117.314 4.26783C117.314 4.26783 115.332 19.0918 114.87 24.1289C114.408 29.1658 113.85 45.9067 117.109 55.24C120.369 64.5732 131.183 75.24 131.183 75.24L131.632 75.5999C131.887 75.0745 132.355 74.1301 133.027 72.8552C140.445 60.7278 149.689 47.2327 157.425 40.5376C163.539 35.2456 169.246 31.5029 174.322 29.0884C180.206 26.6785 185.206 25.9563 188.568 25.7598C188.83 25.7864 189.099 25.8044 189.35 25.845C193.516 26.5169 194.96 27.7939 195.177 29.3667C194.662 30.4739 192.868 34.3779 190.639 39.738C187.812 45.0969 184.133 53.1545 182.162 63.2009C181.674 64.8667 181.219 66.5222 180.813 68.1475C176.369 85.9251 181.406 103.407 181.406 103.407C181.406 103.407 181.728 103.51 182.328 103.678C183.742 111.101 186.005 117.35 189.128 122.273C193.649 129.398 200.544 136.008 207.964 140.322C216.207 140.991 225.688 139.224 234.684 131.623C235.621 130.831 246.684 131.178 247.017 131.623ZM259.739 52.6414C246.11 30.271 231.568 26.6634 231.568 26.6634C249.491 39.0672 257.64 53.2854 260.184 71.9746C262.728 90.6638 253.863 103.905 253.863 103.905C253.45 105.298 262.406 109.186 262.406 109.186C262.406 109.186 266.85 96.6414 268.48 92.0435C270.11 87.4456 273.369 75.0117 259.739 52.6414Z" fill="#F1F5F9"/>
<path d="M104.962 27.9119C104.995 27.9141 105.026 27.9226 105.058 27.9309C105.058 27.9312 104.962 27.9119 104.962 27.9119ZM278.128 124.297C278.007 124.065 277.872 123.838 277.723 123.615C277.602 123.384 273.273 115.212 264.408 109.052C264.413 109.042 264.415 109.032 264.42 109.022C297.223 43.0962 207.768 11.7615 206.121 11.2727C204.725 10.8584 203.193 10.5039 201.603 10.2185C201.126 10.1328 200.682 10.4961 200.665 10.9812C200.652 11.3408 200.874 11.6606 201.217 11.77C209.538 14.4263 222.08 20.0908 234.15 32.0972C244.31 42.2041 252.401 57.1484 248.785 72.1978C248.802 72.1319 248.816 72.0628 248.832 71.9939C248.813 72.0855 248.792 72.1753 248.774 72.2666C248.774 72.2583 248.777 72.2503 248.777 72.2393C241.813 105.329 211.075 106.854 183.455 100.21C177.119 75.3091 186.46 52.0098 197.034 30.0523C197.555 21.6206 183.915 23.9453 178.855 25.6521C156.35 32.8589 142.444 53.3811 131.256 73.0669C108.773 52.0562 117.418 31.0784 119.4 5.03882C114.491 -10.4343 88.6764 19.6304 83.6145 25.3267C71.9771 39.688 65.9832 55.1316 61.4899 73.2986C42.6205 76.019 25.8848 86.9712 15.076 102.592C9.82158 110.703 -8.09517 120.313 5.91594 129.121C47.1922 156.802 116.15 157.251 164.757 161.236C195.236 162.057 228.939 158.49 249.777 133.654C265.673 138.213 295.332 159.49 278.128 124.297ZM109.268 6.91089C110.72 6.14746 114.401 2.95973 115.768 4.81935C114.428 31.95 105.25 55.1633 129.077 76.8565C128.297 78.1751 127.52 79.488 126.746 80.7896C106.569 73.2932 87.8479 68.9734 64.5803 72.7551C71.1319 46.2381 86.3551 22.1897 109.268 6.91089ZM21.6438 133.992C15.0935 130.872 7.41019 127.11 5.0513 119.859C5.9761 117.188 8.74466 115.829 10.7166 114.004C16.3373 108.852 20.8587 101.914 26.0352 96.1768C50.3682 69.7156 93.7312 73.0264 124.037 85.314C122.29 88.2065 120.539 91.0439 118.76 93.8066C118.76 93.8066 113.634 102.603 110.743 105.32C99.2312 120.381 85.2597 131.944 63.0603 136.432C49.484 139.497 34.6575 139.127 21.6438 133.992ZM47.7815 142C84.6553 143.459 111.703 117.268 127.898 86.7925C127.898 86.7927 127.899 86.793 127.899 86.7932C128.807 85.2803 129.715 83.7663 130.616 82.2554C131.16 81.3442 131.702 80.4346 132.244 79.5269C132.244 79.5271 132.244 79.5274 132.244 79.5276C144.817 57.741 159.465 31.1702 187.027 27.6855C188.943 27.761 192.902 27.1726 193.84 29.2666C192.741 37.3086 186.104 44.0137 183.643 51.8379C178.062 66.7393 175.74 83.4922 178.881 99.1758C178.878 99.1753 178.876 99.1748 178.874 99.1743C179.278 101.125 179.765 103.057 180.299 104.977C180.301 104.978 180.304 104.978 180.307 104.979C185.221 126.364 201.175 148.024 225.126 147.306C169.724 166.026 104.148 151.661 47.7815 142ZM251.498 131.646C251.502 131.641 251.506 131.636 251.51 131.632C250.137 131.277 248.742 131 247.341 130.781C247.338 130.784 247.335 130.787 247.332 130.791C244.959 130.694 232.378 128.933 232.928 132.094C233.186 132.741 234.058 132.977 234.605 132.549C238.536 132.167 242.107 132.284 245.506 132.792C224.502 158.595 189.838 131.952 185.041 106.028C198.965 109.108 213.785 110.533 227.671 106.4C263.268 94.4329 258.896 46.6653 231.57 26.6641C259.151 45.9636 275.919 75.1506 261.099 106.978C259.774 106.078 249.648 101.086 252.65 105.804C255.509 106.698 258.084 108.274 260.554 109.941C262.163 111.062 263.707 112.297 265.182 113.616C265.999 114.352 266.826 115.156 266.826 115.156C273.264 121.467 278.051 129.601 279.79 138.443C280.144 147.452 256.565 131.556 251.498 131.646ZM46.0074 109.833C44.6234 107.404 42.8421 100.483 47.0469 100.085C52.8155 97.7275 52.1609 114.901 46.0074 109.833Z" fill="black"/>
</svg>
