<svg
  width="64"
  height="64"
  viewBox="0 0 64 64"
  fill="none"
  xmlns="http://www.w3.org/2000/svg"
>
  <path
    d="M8 32C8 20.9543 16.9543 12 28 12H36C47.0457 12 56 20.9543 56 32V32C56 43.0457 47.0457 52 36 52H28C16.9543 52 8 43.0457 8 32V32Z"
    fill="currentColor"
    opacity="0.3"
  />
  <circle cx="20" cy="28" r="2" fill="currentColor" />
  <path
    d="M16 36C16 34.8954 16.8954 34 18 34H30C31.1046 34 32 34.8954 32 36V36C32 37.1046 31.1046 38 30 38H18C16.8954 38 16 37.1046 16 36V36Z"
    fill="currentColor"
  />
  <path
    d="M52 24L58 20V28L52 32V24Z"
    fill="currentColor"
    opacity="0.7"
  />
  <path
    d="M52 40L58 44V36L52 32V40Z"
    fill="currentColor"
    opacity="0.7"
  />
</svg>
