<svg width="132" height="77" viewBox="0 0 132 77" fill="none" xmlns="http://www.w3.org/2000/svg" style="transform: scaleX(-1);">
<path d="M131.582 13.1191C131.582 13.1191 131.308 14.3583 126.229 17.9229C121.151 21.4875 114.957 19.8959 114.957 19.8959L99.1734 39.1799C99.1734 39.1799 91.6931 48.5816 83.2522 53.8659C74.8112 59.1501 64.8947 61.878 64.8947 61.878C64.8947 61.878 68.1544 67.2651 70.1789 69.3925C72.2034 71.5199 73.5073 73.9562 73.4043 74.8792C73.3014 75.8023 69.1838 75.9806 59.7134 74.162C50.243 72.3434 44.2211 66.0641 44.2211 66.0641C26.1038 67.6426 9.95088 54.276 5.79049 48.9762C1.63011 43.6765 0.283234 34.9594 1.26114 28.2683C2.23905 21.5773 10.3198 21.8861 10.3198 21.8861C10.3198 21.8861 25.5377 21.4915 31.5767 21.6974C37.6158 21.9033 63.1447 21.1484 63.1447 21.1484C90.4579 18.2661 90.2692 22.0748 99.8425 21.3542C109.416 20.6337 112.298 16.6534 112.298 16.6534C112.298 16.6534 111.852 14.3201 111.749 10.5113C111.646 6.70259 113.499 4.16341 114.357 2.96246C115.215 1.76147 117.548 0.560547 117.548 0.560547C117.548 0.560547 117.617 1.17817 117.102 2.68793C116.587 4.19771 117.514 5.60455 119.229 7.59472C120.945 9.58486 119.916 10.9231 119.916 10.9231C119.916 10.9231 121.94 10.7515 122.935 11.2319C123.93 11.7123 124.719 12.6044 126.813 13.3936C128.906 14.1828 131.582 13.1191 131.582 13.1191Z" fill="#94A3B8"/>
<path d="M126.227 17.923C131.305 14.3583 131.579 13.1191 131.579 13.1191C131.579 13.1191 131.499 13.1509 131.357 13.1989C131.208 13.3052 131.058 13.4344 130.881 13.5603C122.148 19.7813 117.104 17.4825 117.104 17.4825L115.302 19.9713C116.669 20.2408 121.858 20.9891 126.227 17.923ZM95.0193 43.8714C92.0496 46.9922 87.7888 51.0242 83.2495 53.8659C74.8085 59.1501 64.892 61.878 64.892 61.878C64.892 61.878 65.004 62.063 65.1984 62.3767L64.6347 62.2338C64.6347 62.2338 61.2333 54.8694 61.2892 53.5399C61.2892 53.5399 75.2374 53.0252 85.171 48.0841C95.1047 43.1431 95.2076 42.5769 95.1047 43.1431C95.092 43.2129 95.062 43.472 95.0193 43.8714ZM32.6721 50.1164C32.6721 50.1164 15.7972 47.3768 10.1627 44.3783C4.52821 41.3799 1.79035 36.6236 1.79035 36.6236L1.19922 36.6433C1.74879 41.2024 3.23974 45.7303 5.78782 48.9763C9.90416 54.2199 25.7607 67.3581 43.6439 66.1069L43.6523 65.9269C38.9857 62.2898 32.6721 50.1164 32.6721 50.1164Z" fill="#F1F5F9"/>
<path d="M23.2134 53.1249C3.6907 48.9896 1.75275 40.4321 1.67969 40.0698L2.58759 39.8848C2.59189 39.9053 3.05579 41.9758 5.82226 44.5134C8.39624 46.8745 13.5361 50.128 23.4052 52.2184L23.5897 52.2575C26.2152 52.8138 30.0723 53.6301 34.7542 54.3265C34.9565 54.6497 35.1747 54.9953 35.4068 55.3588C30.3455 54.6351 26.1846 53.7543 23.3977 53.1638L23.2134 53.1249ZM39.0928 60.7709C38.1898 60.7196 37.2927 60.6553 36.4065 60.5684C16.5142 58.6194 5.84872 47.849 5.74332 47.7404L5.07811 48.3852C5.18849 48.4992 7.84232 51.2105 13.0373 54.2013C17.8198 56.9547 25.7408 60.4542 36.316 61.4904C37.4715 61.6036 38.6417 61.6851 39.8237 61.7387C39.5806 61.4244 39.3365 61.1008 39.0928 60.7709ZM95.3891 43.5101L94.7878 43.0708C84.6211 50.9503 72.8248 54.086 61.6046 55.2212C61.7158 55.5151 61.8328 55.8153 61.9534 56.1175C70.9436 55.1808 80.3199 52.7791 88.945 47.8244C81.497 52.5993 72.3913 56.2781 62.9495 58.4985C63.0816 58.8025 63.2086 59.0909 63.3269 59.3571C74.9092 56.6106 85.7503 51.6203 93.9257 45.194L93.7386 44.7354C94.2927 44.3378 94.844 43.9325 95.3891 43.5101Z" fill="#CBD5E1"/>
<path d="M26.5169 15.5757C26.767 9.21614 34.2709 10.8878 26.7236 16.2617C26.3618 16.2617 26.2482 15.7869 26.5169 15.5757ZM23.6899 15.5904C23.1308 14.4393 18.8872 9.73099 19.1205 13.4207C19.0715 15.2423 25.9102 17.3898 23.6899 15.5904ZM131.892 13.5317C128.263 19.0491 121.082 21.7303 114.647 20.8778C99.8957 39.0096 90.0485 55.5618 65.9729 62.5203C67.0116 65.4498 76.1929 73.7353 73.3113 75.9169C64.0618 77.3903 51.3556 73.2394 44.319 67.0773C30.6879 67.6185 16.6271 61.672 7.35139 51.7012C7.35343 51.7021 7.35547 51.7029 7.3575 51.7038C2.18698 45.2682 -0.657746 36.3111 0.129774 28.0804C1.3441 22.4276 7.53478 21.1116 12.5168 21.1018C27.1265 20.3666 41.7642 21.2827 56.3804 20.7849C67.6322 20.5648 78.7527 18.7791 89.9706 19.842C97.473 20.7526 105.545 21.9497 111.809 16.6385C109.886 10.6488 111.474 3.06171 117.447 0.0572457C117.843 -0.176686 118.277 0.360417 117.954 0.693729C115.629 7.86799 121.781 6.0547 120.759 10.2828C124.268 9.37362 123.951 14.3835 131.346 12.4355C131.676 12.3252 131.989 12.6576 131.94 12.9699C132.042 13.1042 132.006 13.3465 131.892 13.5317ZM130.883 13.5602C129.354 13.9332 127.735 14.062 126.183 13.7739C122.912 13.2463 123.024 11.1744 121.381 11.3022C120.634 11.2505 119.877 11.9166 119.19 11.4962C118.622 10.7798 119.867 10.2541 119.755 9.46921C119.188 6.91415 115.417 7.13897 116.958 1.4763C112.382 4.61786 111.469 10.6839 112.71 15.7642C112.71 15.7642 112.963 16.3473 112.767 16.6245C107.605 22.7994 98.9517 22.3643 91.6813 21.3763C80.4627 20.05 69.2515 22.1667 58.0236 22.3318C42.0612 22.9573 26.0313 21.6444 10.0917 22.8875C4.51119 22.9757 0.707164 26.4771 1.60478 32.2692C1.60478 32.2692 1.63401 34.941 2.76861 38.9427C3.1261 40.4638 3.48172 41.7939 3.91016 42.9625L3.91147 42.9676C6.8958 52.2359 14.9127 56.6736 16.4348 57.726C21.8515 61.4713 34.4112 65.6659 42.6514 65.4944C32.519 55.53 29.2094 44.5954 30.4235 44.2119C30.5919 44.2057 30.7145 44.3588 30.724 44.5182C34.0182 52.784 39.2366 61.0436 45.9514 66.9474C53.3494 72.597 63.4918 75.4019 72.7356 74.7987C73.1417 72.357 61.2899 62.3766 60.2391 52.2066H60.241C60.1619 51.719 59.3273 48.3718 60.571 49.5819C60.8089 50.4631 61.1428 51.3192 61.3464 52.2104C62.7574 58.3866 64.6481 60.1583 65.1496 61.0761C81.6669 55.6239 88.4947 49.1108 92.2918 45.1757C95.2074 42.3652 99.2019 37.6868 99.2019 37.6868C103.909 31.9621 108.531 26.1806 113.545 20.7217C113.886 20.3436 114.573 19.5909 114.573 19.5909C115.221 18.8852 115.876 18.1878 116.555 17.5142C116.701 17.3692 116.932 17.3532 117.097 17.4763C117.1 17.4783 117.103 17.4804 117.105 17.4824C117.277 17.6106 117.324 17.8476 117.215 18.0316C116.843 18.6585 116.328 19.1726 115.799 19.6805C121.44 20.0937 127.092 17.7314 130.883 13.5602ZM22.3806 35.1216C21.7619 38.7337 25.4772 38.1466 24.2782 34.7645C23.8989 33.659 22.6098 33.7837 22.3806 35.1216Z" fill="black"/>
</svg>